<svg xmlns="http://www.w3.org/2000/svg" xmlns:xlink="http://www.w3.org/1999/xlink" version="1.1" data-diagram-type="DESCRIPTION" style="width:804px;height:861px;background:#FFFFFF;" width="804px" height="861px" viewBox="0 0 804 861" zoomAndPan="magnify" preserveAspectRatio="none" contentStyleType="text/css"><?plantuml 1.2026.7beta6?><defs/><g font-family="sans-serif" lengthAdjust="spacing"><g class="title" data-source-line="22"><text x="145.833" y="22.995" fill="#000" font-size="14" textLength="505.333" font-weight="700">Traffic Processor System - Deployment Diagram (Physical View)</text></g><!--cluster UserDevice--><g class="cluster" data-qualified-name="UserDevice" id="ent0001" data-source-line="25"><polygon points="16,53.297,26,43.297,220,43.297,220,151.597,210,161.597,16,161.597,16,53.297" fill="#F5F5F5" style="stroke:#00008B;stroke-width:1;stroke-linejoin:miter;stroke-miterlimit:10;"/><line x1="210" y1="53.297" x2="220" y2="43.297" style="stroke:#00008B;stroke-width:1;"/><line x1="16" y1="53.297" x2="210" y2="53.297" style="stroke:#00008B;stroke-width:1;"/><line x1="210" y1="53.297" x2="210" y2="161.597" style="stroke:#00008B;stroke-width:1;"/><text x="82.442" y="69.292" fill="#000" font-size="14" textLength="63.116" font-style="italic">«device»</text><text x="49.882" y="85.589" fill="#000" font-size="14" textLength="128.235" font-weight="700">End User Device</text></g><!--cluster External Network--><g class="cluster" data-qualified-name="External Network" id="ent0003" data-source-line="30"><path d="M253.683,74.02 C257.221,67.929 262.171,68.385 265.946,73.765 C269.311,67.678 276.243,66.937 279.947,73.387 C282.563,66.83 288.576,65.643 292.521,72.104 C296.103,64.737 301.081,65.412 305.739,71.007 C310.365,63.947 316.403,65.181 320.503,71.585 C324.504,65.621 328.508,65.041 332.764,71.33 C335.283,64.42 341.407,64.188 345.276,70.003 C349.619,63.587 356.808,63.379 360.549,70.674 C364.349,65.346 370.279,64.297 373.503,71.279 C376.692,66.266 381.655,66.169 385.105,70.971 C389.935,64.814 395.81,65.7 398.752,72.901 C402.557,65.342 409.496,66.16 413.404,72.794 C416.88,66.739 422.556,68.029 424.963,73.835 C429.684,66.586 434.292,67.246 438.687,74.151 C445.883,77.065 445.031,82.698 439.785,86.701 C448.068,88.32 448.56,94.103 443.74,99.707 C451.238,103.307 450.444,108.786 444.431,113.083 C451.011,117.051 450.576,123.908 443.44,126.892 C448.065,132.645 448.503,138.246 440.168,140.99 C445.029,145.99 445.682,151.236 438.214,154.446 C435.616,161.219 429.28,161.067 425.094,156.242 C421.574,162.697 416.689,163.089 412.349,157.079 C409.512,162.762 403.511,164.631 399.598,158.214 C395.804,165.028 391.785,164.906 387.284,158.893 C383.845,164.676 377.619,166.089 373.519,159.637 C370.759,166.116 364.688,167.461 360.229,161.444 C356.215,168.571 350.92,168.429 346.644,161.7 C342.629,167.902 335.768,167.931 332.62,160.788 C328.698,165.13 322.845,164.828 320.817,158.661 C316.858,164.513 310.818,165.304 306.872,158.647 C303.027,166.088 297.11,164.716 293.161,158.753 C288.378,165.323 284.505,163.751 280.523,157.935 C274.415,163.432 270.504,161.486 267.285,154.797 C263.086,160.587 258.026,161.315 254.454,154.176 C248.134,152.503 245.306,147.427 249.996,141.792 C242.495,137.491 241.176,133.008 248.263,126.998 C242.338,124.139 240.47,119.047 246.467,114.478 C240.266,110.287 241.686,104.171 247.44,100.833 C241.238,94.431 243.303,88.804 251.542,86.548 C246.104,81.623 247.513,76.961 253.683,74.02" style="stroke:#008B8B;stroke-width:1;" fill="#E0FFFF"/><text x="276.278" y="90.292" fill="#000" font-size="14" textLength="137.443" font-weight="700">External Network</text></g><!--cluster DockerHost--><g class="cluster" data-qualified-name="DockerHost" id="ent0005" data-source-line="35"><polygon points="109,235.597,119,225.597,779,225.597,779,826.077,769,836.077,109,836.077,109,235.597" fill="#F5F5F5" style="stroke:#00008B;stroke-width:1;stroke-linejoin:miter;stroke-miterlimit:10;"/><line x1="769" y1="235.597" x2="779" y2="225.597" style="stroke:#00008B;stroke-width:1;"/><line x1="109" y1="235.597" x2="769" y2="235.597" style="stroke:#00008B;stroke-width:1;"/><line x1="769" y1="235.597" x2="769" y2="836.077" style="stroke:#00008B;stroke-width:1;"/><text x="409.276" y="251.592" fill="#000" font-size="14" textLength="61.448" font-style="italic">«server»</text><text x="391.759" y="267.889" fill="#000" font-size="14" textLength="96.482" font-weight="700">Docker Host</text></g><!--cluster Compose--><g class="cluster" data-qualified-name="DockerHost.Compose" id="ent0006" data-source-line="37"><polygon points="133,299.597,143,289.597,755,289.597,755,802.077,745,812.077,133,812.077,133,299.597" fill="#F5F5F5" style="stroke:#00008B;stroke-width:1;stroke-linejoin:miter;stroke-miterlimit:10;"/><line x1="745" y1="299.597" x2="755" y2="289.597" style="stroke:#00008B;stroke-width:1;"/><line x1="133" y1="299.597" x2="745" y2="299.597" style="stroke:#00008B;stroke-width:1;"/><line x1="745" y1="299.597" x2="745" y2="812.077" style="stroke:#00008B;stroke-width:1;"/><text x="350.025" y="315.592" fill="#000" font-size="14" textLength="179.949" font-style="italic">«execution environment»</text><text x="373.965" y="331.889" fill="#000" font-size="14" textLength="132.07" font-weight="700">Docker Compose</text></g><!--cluster GateNet--><g class="cluster" data-qualified-name="DockerHost.Compose.GateNet" id="ent0007" data-source-line="40"><polygon points="270,363.597,280,353.597,637,353.597,637,478.187,627,488.187,270,488.187,270,363.597" fill="#F5F5F5" style="stroke:#00008B;stroke-width:1;stroke-linejoin:miter;stroke-miterlimit:10;"/><line x1="627" y1="363.597" x2="637" y2="353.597" style="stroke:#00008B;stroke-width:1;"/><line x1="270" y1="363.597" x2="627" y2="363.597" style="stroke:#00008B;stroke-width:1;"/><line x1="627" y1="363.597" x2="627" y2="488.187" style="stroke:#00008B;stroke-width:1;"/><text x="359.525" y="379.592" fill="#000" font-size="14" textLength="179.949" font-style="italic">«execution environment»</text><text x="347.306" y="395.889" fill="#000" font-size="14" textLength="204.388" font-weight="700">Gate Network Namespace</text></g><!--cluster Control & Status--><g class="cluster" data-qualified-name="DockerHost.Compose.Control . Status" id="ent0012" data-source-line="48"><polygon points="157,562.187,167,552.187,412,552.187,412,676.777,402,686.777,157,686.777,157,562.187" fill="#F5F5F5" style="stroke:#00008B;stroke-width:1;stroke-linejoin:miter;stroke-miterlimit:10;"/><line x1="402" y1="562.187" x2="412" y2="552.187" style="stroke:#00008B;stroke-width:1;"/><line x1="157" y1="562.187" x2="402" y2="562.187" style="stroke:#00008B;stroke-width:1;"/><line x1="402" y1="562.187" x2="402" y2="686.777" style="stroke:#00008B;stroke-width:1;"/><text x="190.525" y="578.182" fill="#000" font-size="14" textLength="179.949" font-style="italic">«execution environment»</text><text x="214.978" y="594.479" fill="#000" font-size="14" textLength="131.045" font-weight="700">Control &amp; Status</text></g><!--entity browser--><g class="entity" data-qualified-name="UserDevice.browser" id="ent0002" data-source-line="26"><rect x="71.58" y="99.297" width="132.832" height="46.297" fill="#FFF" style="stroke:#000;stroke-width:0.5;" rx="2.5" ry="2.5"/><rect x="184.412" y="104.297" width="15" height="10" fill="#FFF" style="stroke:#000;stroke-width:0.5;"/><rect x="182.412" y="106.297" width="4" height="2" fill="#FFF" style="stroke:#000;stroke-width:0.5;"/><rect x="182.412" y="110.297" width="4" height="2" fill="#FFF" style="stroke:#000;stroke-width:0.5;"/><text x="86.58" y="132.292" fill="#000" font-size="14" textLength="92.832">Web Browser</text></g><!--entity network--><g class="entity" data-qualified-name="External Network.network" id="ent0004" data-source-line="31"><rect x="259.89" y="99.297" width="170.211" height="46.297" fill="#FFF" style="stroke:#000;stroke-width:0.5;" rx="2.5" ry="2.5"/><rect x="410.101" y="104.297" width="15" height="10" fill="#FFF" style="stroke:#000;stroke-width:0.5;"/><rect x="408.101" y="106.297" width="4" height="2" fill="#FFF" style="stroke:#000;stroke-width:0.5;"/><rect x="408.101" y="110.297" width="4" height="2" fill="#FFF" style="stroke:#000;stroke-width:0.5;"/><text x="274.89" y="132.292" fill="#000" font-size="14" textLength="130.211">Live Traffic Source</text></g><!--entity mock_target--><g class="entity" data-qualified-name="DockerHost.Compose.mock_target" id="ent0010" data-source-line="45"><rect x="588.86" y="608.187" width="150.277" height="62.594" fill="#FFF" style="stroke:#000;stroke-width:0.5;" rx="2.5" ry="2.5"/><rect x="719.137" y="613.187" width="15" height="10" fill="#FFF" style="stroke:#000;stroke-width:0.5;"/><rect x="717.137" y="615.187" width="4" height="2" fill="#FFF" style="stroke:#000;stroke-width:0.5;"/><rect x="717.137" y="619.187" width="4" height="2" fill="#FFF" style="stroke:#000;stroke-width:0.5;"/><text x="603.86" y="641.182" fill="#000" font-size="14" textLength="86.775">Mock Target</text><text x="603.86" y="657.479" fill="#000" font-size="14" textLength="110.277">(Protected App)</text></g><!--entity error_server--><g class="entity" data-qualified-name="DockerHost.Compose.error_server" id="ent0011" data-source-line="46"><rect x="428.48" y="608.187" width="125.039" height="62.594" fill="#FFF" style="stroke:#000;stroke-width:0.5;" rx="2.5" ry="2.5"/><rect x="533.519" y="613.187" width="15" height="10" fill="#FFF" style="stroke:#000;stroke-width:0.5;"/><rect x="531.519" y="615.187" width="4" height="2" fill="#FFF" style="stroke:#000;stroke-width:0.5;"/><rect x="531.519" y="619.187" width="4" height="2" fill="#FFF" style="stroke:#000;stroke-width:0.5;"/><text x="443.48" y="641.182" fill="#000" font-size="14" textLength="85.039">Error Server</text><text x="443.48" y="657.479" fill="#000" font-size="14" textLength="76.617">(403 Page)</text></g><!--entity postgres--><g class="entity" data-qualified-name="DockerHost.Compose.postgres" id="ent0014" data-source-line="52"><rect x="157.81" y="749.777" width="156.375" height="46.297" fill="#FFF" style="stroke:#000;stroke-width:0.5;" rx="2.5" ry="2.5"/><rect x="294.185" y="754.777" width="15" height="10" fill="#FFF" style="stroke:#000;stroke-width:0.5;"/><rect x="292.185" y="756.777" width="4" height="2" fill="#FFF" style="stroke:#000;stroke-width:0.5;"/><rect x="292.185" y="760.777" width="4" height="2" fill="#FFF" style="stroke:#000;stroke-width:0.5;"/><text x="172.81" y="782.772" fill="#000" font-size="14" textLength="116.375">PostgreSQL 14.8</text></g><!--entity gate--><g class="entity" data-qualified-name="DockerHost.Compose.GateNet.gate" id="ent0008" data-source-line="41"><rect x="469.19" y="409.597" width="151.61" height="62.594" fill="#FFF" style="stroke:#000;stroke-width:0.5;" rx="2.5" ry="2.5"/><rect x="600.8" y="414.597" width="15" height="10" fill="#FFF" style="stroke:#000;stroke-width:0.5;"/><rect x="598.8" y="416.597" width="4" height="2" fill="#FFF" style="stroke:#000;stroke-width:0.5;"/><rect x="598.8" y="420.597" width="4" height="2" fill="#FFF" style="stroke:#000;stroke-width:0.5;"/><text x="484.19" y="442.592" fill="#000" font-size="14" textLength="33.53">Gate</text><text x="484.19" y="458.889" fill="#000" font-size="14" textLength="111.61">(Reverse Proxy)</text></g><!--entity tproc--><g class="entity" data-qualified-name="DockerHost.Compose.GateNet.tproc" id="ent0009" data-source-line="42"><rect x="285.91" y="409.597" width="148.179" height="62.594" fill="#FFF" style="stroke:#000;stroke-width:0.5;" rx="2.5" ry="2.5"/><rect x="414.089" y="414.597" width="15" height="10" fill="#FFF" style="stroke:#000;stroke-width:0.5;"/><rect x="412.089" y="416.597" width="4" height="2" fill="#FFF" style="stroke:#000;stroke-width:0.5;"/><rect x="412.089" y="420.597" width="4" height="2" fill="#FFF" style="stroke:#000;stroke-width:0.5;"/><text x="300.91" y="442.592" fill="#000" font-size="14" textLength="39.013">TProc</text><text x="300.91" y="458.889" fill="#000" font-size="14" textLength="108.179">(Packet Sniffer)</text></g><!--entity cnss--><g class="entity" data-qualified-name="DockerHost.Compose.Control . Status.cnss" id="ent0013" data-source-line="49"><rect x="184.76" y="608.187" width="102.487" height="62.594" fill="#FFF" style="stroke:#000;stroke-width:0.5;" rx="2.5" ry="2.5"/><rect x="267.247" y="613.187" width="15" height="10" fill="#FFF" style="stroke:#000;stroke-width:0.5;"/><rect x="265.247" y="615.187" width="4" height="2" fill="#FFF" style="stroke:#000;stroke-width:0.5;"/><rect x="265.247" y="619.187" width="4" height="2" fill="#FFF" style="stroke:#000;stroke-width:0.5;"/><text x="199.76" y="641.182" fill="#000" font-size="14" textLength="38.021">CNSS</text><text x="199.76" y="657.479" fill="#000" font-size="14" textLength="62.487">(FastAPI)</text></g><!--link network to tproc--><g class="link" data-entity-1="ent0004" data-entity-2="ent0009" id="lnk15" data-source-line="57" data-link-type="dependency"><path d="M341.42,146.037 C340.06,155.727 338.67,167.187 338,177.597 C332.6,261.507 345.508,355.365 353.658,404.295" style="stroke:#181818;stroke-width:1;" fill="none" id="network-to-tproc"/><polygon points="354.48,409.227,356.947,399.692,353.658,404.295,349.056,401.006,354.48,409.227" fill="#181818" style="stroke:#181818;stroke-width:1;stroke-linejoin:miter;stroke-miterlimit:10;"/><text x="339" y="198.164" fill="#000" font-size="13" textLength="166.074">Raw Socket (NET_ADMIN)</text></g><!--link tproc to cnss--><g class="link" data-entity-1="ent0009" data-entity-2="ent0013" id="lnk16" data-source-line="58" data-link-type="dependency"><path d="M302.92,472.627 C275.35,487.587 247.96,502.707 247,504.187 C226.98,535.117 226.864,573.859 230.174,602.909" style="stroke:#181818;stroke-width:1;" fill="none" id="tproc-to-cnss"/><polygon points="230.74,607.877,233.695,598.482,230.174,602.909,225.747,599.388,230.74,607.877" fill="#181818" style="stroke:#181818;stroke-width:1;stroke-linejoin:miter;stroke-miterlimit:10;"/><text x="248" y="524.754" fill="#000" font-size="13" textLength="186.329">HTTP POST /load (port 8080)</text></g><!--link browser to gate--><g class="link" data-entity-1="ent0002" data-entity-2="ent0008" id="lnk17" data-source-line="61" data-link-type="dependency"><path d="M179.81,146.037 C198.83,155.147 221.97,164.657 244,169.597 C258.43,172.827 499.02,167.687 510,177.597 C575.15,236.377 563.505,348.545 552.915,404.205" style="stroke:#181818;stroke-width:1;" fill="none" id="browser-to-gate"/><polygon points="551.98,409.117,557.592,401.023,552.915,404.205,549.733,399.528,551.98,409.117" fill="#181818" style="stroke:#181818;stroke-width:1;stroke-linejoin:miter;stroke-miterlimit:10;"/><text x="535.768" y="190.664" fill="#000" font-size="13" textLength="111.636">HTTP (port 8000)</text><text x="533" y="205.797" fill="#000" font-size="13" textLength="117.171">(protected target)</text></g><!--link browser to cnss--><g class="link" data-entity-1="ent0002" data-entity-2="ent0013" id="lnk18" data-source-line="62" data-link-type="dependency"><path d="M135.69,145.857 C130.34,204.697 120.26,367.867 157,496.187 C168.86,537.617 191.809,576.048 210.699,603.698" style="stroke:#181818;stroke-width:1;" fill="none" id="browser-to-cnss"/><polygon points="213.52,607.827,211.746,598.139,210.699,603.698,205.14,602.652,213.52,607.827" fill="#181818" style="stroke:#181818;stroke-width:1;stroke-linejoin:miter;stroke-miterlimit:10;"/><text x="158" y="437.954" fill="#000" font-size="13" textLength="111.636">HTTP (port 8080)</text><text x="174.247" y="453.087" fill="#000" font-size="13" textLength="79.143">(dashboard)</text></g><!--link gate to mock_target--><g class="link" data-entity-1="ent0008" data-entity-2="ent0010" id="lnk19" data-source-line="65" data-link-type="dependency"><path d="M573.56,472.387 C581.97,482.147 590.83,493.267 598,504.187 C620.03,537.737 637.532,575.11 649.522,603.12" style="stroke:#181818;stroke-width:1;" fill="none" id="gate-to-mock_target"/><polygon points="651.49,607.717,651.626,597.869,649.522,603.12,644.271,601.017,651.49,607.717" fill="#181818" style="stroke:#181818;stroke-width:1;stroke-linejoin:miter;stroke-miterlimit:10;"/><text x="617" y="517.254" fill="#000" font-size="13" textLength="97.881">HTTP (internal)</text><text x="621.792" y="532.387" fill="#000" font-size="13" textLength="88.296">(if IP allowed)</text></g><!--link gate to error_server--><g class="link" data-entity-1="ent0008" data-entity-2="ent0011" id="lnk20" data-source-line="66" data-link-type="dependency"><path d="M514.11,472.367 C506.45,481.797 499.22,492.737 495,504.187 C482.54,537.997 483.152,574.943 486.002,602.863" style="stroke:#181818;stroke-width:1;" fill="none" id="gate-to-error_server"/><polygon points="486.51,607.837,489.575,598.477,486.002,602.863,481.617,599.29,486.51,607.837" fill="#181818" style="stroke:#181818;stroke-width:1;stroke-linejoin:miter;stroke-miterlimit:10;"/><text x="496" y="517.254" fill="#000" font-size="13" textLength="97.881">HTTP (internal)</text><text x="500.434" y="532.387" fill="#000" font-size="13" textLength="89.013">(if IP blocked)</text></g><!--link cnss to postgres--><g class="link" data-entity-1="ent0013" data-entity-2="ent0014" id="lnk21" data-source-line="69" data-link-type="dependency"><path d="M236,670.967 C236,694.937 236,722.777 236,744.407" style="stroke:#181818;stroke-width:1;" fill="none" id="cnss-to-postgres"/><polygon points="236,749.407,240,740.407,236,744.407,232,740.407,236,749.407" fill="#181818" style="stroke:#181818;stroke-width:1;stroke-linejoin:miter;stroke-miterlimit:10;"/><text x="237" y="715.844" fill="#000" font-size="13" textLength="103.867">SQL (port 5432)</text></g><?plantuml-src bLJRRjf047ttLuoer9W76jfIAQeY96vja0XrCKqUqYfQxC6iCBlMxW91KLxx0Vt4VabdTuDnK9ggVh9tvfmvSsRMUib5mHHRWP0fmdq0q6N9CbDoBTAUpAM2wmKt6A_a4crGgXIL3_IPMdRpjJtkA2Mt_lHLopt1Gn3eaZoHgq8A5ERl5Ox8kpab7P7aSfq-Ip3YsSBqTamyez0TF-59cM4pfl7_jHXkSeIfOlCvJo1ICa6jAI7UQOChQ40VYrpkLhRHFcUPhHP6Yvtc2SlXYkEs7WGdq6Wqe9TpcpNbgEntuEol3KGAtpGTzN734wp1-NdgtjfjODg5VCHfFxXwSuqpwD8CAE67pPpvTolQrnlS6LI2L8pHRALQkgBUqTfnh7RCFkARGzknNAi4NHNXymzL-Z9PaleBgGs48scxFgLMRPMhotgbqKgYRPAaRb3v9dt8KTm7fEC9e6T5QMSCtc6oDbmAGB7XIWfhkwTupF9uW1E85qnXkjSBWgrG5uni3ATsYg1jNCDdPl2aRAlkmBwyZPJMZVVmVyYm8C8uD-rJSTI6lejmWjGs2IKHTxkwypHZRl-EyfrC0aIqYSGO2pwVe_88Kr3CGHvylnNS9Ta6KwOoD1QjfC74a1ETel3W5INS6fTmZ1tGfQRTTgCXSAlv7YAMeSUX3TxwkGKLetfI62LpU0snOMQjNxBe6LzwupYcMf-ODfrew4ibGkjgU-NzlObeIJA5yTSHl6szENFPXJ-pY8V3OaumPrQ1Nl12GrXk_E-Vls0e_CVZVfRte-sTXOymOLjQU-TyE1vCRplzo-6u7lYmJRGIAUzYEeqW-X9FuJINB8MmaCh0MVEiUNplEudzTRY2ZrVLyTZXxtdsu6QpJeuKvUZyiEfFSDNwbQA4IvbUp2HJQQbWtovC90r5P13QPVJDk_gMiB8M9I_V-qIqV0x325YUooqITOchhiKBm5bktJneYkWMSFg7YWJzZqauSzhbD8dBJjdtzg7r_btz3m00?></g></svg>