<?plantuml 1.2026.2?>
<svg xmlns="http://www.w3.org/2000/svg" xmlns:xlink="http://www.w3.org/1999/xlink" contentStyleType="text/css" data-diagram-type="DESCRIPTION" height="766px" preserveAspectRatio="none" style="width:827px;height:766px;background:#FFFFFF;" version="1.1" viewBox="0 0 827 766" width="827px" zoomAndPan="magnify"><title>Traffic Processor System - Deployment Diagram (Physical View)</title><defs/><g><g class="title" data-source-line="24"><text fill="#000000" font-family="Verdana" font-size="22" font-weight="bold" lengthAdjust="spacing" textLength="794.0947" x="15" y="35.4209">Traffic Processor System - Deployment Diagram (Physical View)</text></g><!--cluster UserDevice--><g class="cluster" data-qualified-name="UserDevice" data-source-line="27" id="ent0002"><polygon fill="#F5F5F5" points="128.5474,223.0276,138.5474,213.0276,332.5474,213.0276,332.5474,321.0276,322.5474,331.0276,128.5474,331.0276,128.5474,223.0276" style="stroke:#00008B;stroke-width:1;"/><line style="stroke:#00008B;stroke-width:1;" x1="322.5474" x2="332.5474" y1="223.0276" y2="213.0276"/><line style="stroke:#00008B;stroke-width:1;" x1="128.5474" x2="322.5474" y1="223.0276" y2="223.0276"/><line style="stroke:#00008B;stroke-width:1;" x1="322.5474" x2="322.5474" y1="223.0276" y2="331.0276"/><text fill="#000000" font-family="Verdana" font-size="14" font-style="italic" lengthAdjust="spacing" textLength="63.2666" x="194.9141" y="239.0227">«device»</text><text fill="#000000" font-family="Verdana" font-size="14" font-weight="bold" lengthAdjust="spacing" textLength="128.2354" x="162.4297" y="255.3196">End User Device</text></g><!--cluster External Network--><g class="cluster" data-qualified-name="External Network" data-source-line="32" id="ent0004"><path d="M381.2307,68.2504 C384.7681,62.1599 389.718,62.6152 393.4935,67.9958 C396.8588,61.9088 403.7906,61.1681 407.4941,67.6181 C410.1103,61.0611 416.123,59.8733 420.0683,66.3344 C423.6507,58.9674 428.6285,59.643 433.2864,65.2376 C437.9128,58.1781 443.9507,59.4119 448.0502,65.8154 C452.0517,59.8517 456.055,59.2714 460.3112,65.5604 C462.8304,58.6508 468.9547,58.4187 472.8231,64.2339 C477.1664,57.8177 484.3551,57.6094 488.0964,64.9045 C491.8963,59.5771 497.8259,58.5273 501.0503,65.5101 C504.239,60.4971 509.2028,60.3992 512.6521,65.202 C517.4822,59.0446 523.3575,59.9304 526.299,67.1314 C530.104,59.5725 537.0437,60.3909 540.9518,67.025 C544.4277,60.9697 550.103,62.2596 552.5105,68.0662 C557.2309,60.8163 561.8396,61.4771 566.2345,68.3818 C573.4032,71.2819 572.5566,76.8931 567.3323,80.8817 C575.5876,82.4862 576.0845,88.2483 571.2877,93.8376 C578.7579,97.4227 577.9685,102.8813 571.9779,107.1636 C578.534,111.119 578.0989,117.9512 570.9874,120.9228 C575.5922,126.6603 576.0245,132.242 567.7149,134.9711 C572.5563,139.9555 573.204,145.182 565.7616,148.3765 C563.1638,155.1499 556.8273,154.9976 552.6418,150.1725 C549.1209,156.6272 544.2365,157.0201 539.8964,151.0101 C537.0597,156.693 531.0585,158.5618 527.1453,152.1446 C523.3518,158.9588 519.3321,158.8371 514.8315,152.8233 C511.3924,158.6071 505.1667,160.0197 501.0663,153.5674 C498.3066,160.0471 492.2357,161.3914 487.7767,155.3746 C483.7626,162.5013 478.4669,162.3599 474.1916,155.6307 C470.176,161.833 463.3155,161.8618 460.1674,154.7191 C456.2457,159.0612 450.3923,158.7583 448.3644,152.5919 C444.4051,158.4439 438.3656,159.235 434.4191,152.5778 C430.5745,160.0187 424.657,158.6467 420.7087,152.6838 C415.925,159.2535 412.0527,157.6814 408.0707,151.8658 C401.9623,157.3632 398.0517,155.4164 394.832,148.7276 C390.6338,154.5176 385.5738,155.2456 382.001,148.1069 C375.7021,146.4483 372.8774,141.3938 377.5434,135.7725 C370.0653,131.4885 368.7498,127.0216 375.8106,121.0289 C369.9068,118.1842 368.0437,113.1136 374.0145,108.5586 C367.8368,104.3816 369.2535,98.2884 374.9873,94.9638 C368.8116,88.5762 370.8752,82.9698 379.0894,80.7289 C373.6754,75.8194 375.0822,71.1758 381.2307,68.2504" fill="#E0FFFF" style="stroke:#008B8B;stroke-width:1;"/><text fill="#000000" font-family="Verdana" font-size="14" font-weight="bold" lengthAdjust="spacing" textLength="137.4434" x="403.8257" y="84.5227">External Network</text></g><!--cluster DockerHost--><g class="cluster" data-qualified-name="DockerHost" data-source-line="37" id="ent0006"><polygon fill="#F5F5F5" points="356.5474,214.5276,366.5474,204.5276,708.5474,204.5276,708.5474,739.5276,698.5474,749.5276,356.5474,749.5276,356.5474,214.5276" style="stroke:#00008B;stroke-width:1;"/><line style="stroke:#00008B;stroke-width:1;" x1="698.5474" x2="708.5474" y1="214.5276" y2="204.5276"/><line style="stroke:#00008B;stroke-width:1;" x1="356.5474" x2="698.5474" y1="214.5276" y2="214.5276"/><line style="stroke:#00008B;stroke-width:1;" x1="698.5474" x2="698.5474" y1="214.5276" y2="749.5276"/><text fill="#000000" font-family="Verdana" font-size="14" font-style="italic" lengthAdjust="spacing" textLength="61.5986" x="497.748" y="230.5227">«server»</text><text fill="#000000" font-family="Verdana" font-size="14" font-weight="bold" lengthAdjust="spacing" textLength="96.4824" x="480.3062" y="246.8196">Docker Host</text></g><!--cluster Compose--><g class="cluster" data-qualified-name="DockerHost.Compose" data-source-line="39" id="ent0007"><polygon fill="#F5F5F5" points="380.5474,411.5276,390.5474,401.5276,684.5474,401.5276,684.5474,715.5276,674.5474,725.5276,380.5474,725.5276,380.5474,411.5276" style="stroke:#00008B;stroke-width:1;"/><line style="stroke:#00008B;stroke-width:1;" x1="674.5474" x2="684.5474" y1="411.5276" y2="401.5276"/><line style="stroke:#00008B;stroke-width:1;" x1="380.5474" x2="674.5474" y1="411.5276" y2="411.5276"/><line style="stroke:#00008B;stroke-width:1;" x1="674.5474" x2="674.5474" y1="411.5276" y2="725.5276"/><text fill="#000000" font-family="Verdana" font-size="14" font-style="italic" lengthAdjust="spacing" textLength="180.0996" x="438.4976" y="427.5227">«execution environment»</text><text fill="#000000" font-family="Verdana" font-size="14" font-weight="bold" lengthAdjust="spacing" textLength="132.0703" x="462.5122" y="443.8196">Docker Compose</text></g><!--cluster Control & Status--><g class="cluster" data-qualified-name="DockerHost.Compose.Control . Status" data-source-line="41" id="ent0008"><polygon fill="#F5F5F5" points="404.5474,475.5276,414.5474,465.5276,660.5474,465.5276,660.5474,590.5276,650.5474,600.5276,404.5474,600.5276,404.5474,475.5276" style="stroke:#00008B;stroke-width:1;"/><line style="stroke:#00008B;stroke-width:1;" x1="650.5474" x2="660.5474" y1="475.5276" y2="465.5276"/><line style="stroke:#00008B;stroke-width:1;" x1="404.5474" x2="650.5474" y1="475.5276" y2="475.5276"/><line style="stroke:#00008B;stroke-width:1;" x1="650.5474" x2="650.5474" y1="475.5276" y2="600.5276"/><text fill="#000000" font-family="Verdana" font-size="14" font-style="italic" lengthAdjust="spacing" textLength="180.0996" x="438.4976" y="491.5227">«execution environment»</text><text fill="#000000" font-family="Verdana" font-size="14" font-weight="bold" lengthAdjust="spacing" textLength="131.0449" x="463.0249" y="507.8196">Control &amp; Status</text></g><!--entity browser--><g class="entity" data-qualified-name="UserDevice.browser" data-source-line="28" id="ent0003"><rect fill="#FFFFFF" height="46.2969" rx="2.5" ry="2.5" style="stroke:#000000;stroke-width:1;" width="132.832" x="183.0474" y="269.0276"/><rect fill="#FFFFFF" height="10" style="stroke:#000000;stroke-width:1;" width="15" x="295.8794" y="274.0276"/><rect fill="#FFFFFF" height="2" style="stroke:#000000;stroke-width:1;" width="4" x="293.8794" y="276.0276"/><rect fill="#FFFFFF" height="2" style="stroke:#000000;stroke-width:1;" width="4" x="293.8794" y="280.0276"/><text fill="#000000" font-family="Verdana" font-size="14" lengthAdjust="spacing" textLength="92.832" x="198.0474" y="302.0227">Web Browser</text></g><!--entity network--><g class="entity" data-qualified-name="External Network.network" data-source-line="33" id="ent0005"><rect fill="#FFFFFF" height="46.2969" rx="2.5" ry="2.5" style="stroke:#000000;stroke-width:1;" width="170.2109" x="387.5474" y="93.5276"/><rect fill="#FFFFFF" height="10" style="stroke:#000000;stroke-width:1;" width="15" x="537.7583" y="98.5276"/><rect fill="#FFFFFF" height="2" style="stroke:#000000;stroke-width:1;" width="4" x="535.7583" y="100.5276"/><rect fill="#FFFFFF" height="2" style="stroke:#000000;stroke-width:1;" width="4" x="535.7583" y="104.5276"/><text fill="#000000" font-family="Verdana" font-size="14" lengthAdjust="spacing" textLength="130.2109" x="402.5474" y="126.5227">Live Traffic Source</text></g><!--entity tproc--><g class="entity" data-qualified-name="DockerHost.tproc" data-source-line="49" id="ent0011"><rect fill="#FFFFFF" height="62.5938" rx="2.5" ry="2.5" style="stroke:#000000;stroke-width:1;" width="148.1787" x="398.5474" y="260.5276"/><rect fill="#FFFFFF" height="10" style="stroke:#000000;stroke-width:1;" width="15" x="526.7261" y="265.5276"/><rect fill="#FFFFFF" height="2" style="stroke:#000000;stroke-width:1;" width="4" x="524.7261" y="267.5276"/><rect fill="#FFFFFF" height="2" style="stroke:#000000;stroke-width:1;" width="4" x="524.7261" y="271.5276"/><text fill="#000000" font-family="Verdana" font-size="14" lengthAdjust="spacing" textLength="39.0127" x="413.5474" y="293.5227">TProc</text><text fill="#000000" font-family="Verdana" font-size="14" lengthAdjust="spacing" textLength="108.1787" x="413.5474" y="309.8196">(Packet Sniffer)</text></g><!--entity postgres--><g class="entity" data-qualified-name="DockerHost.Compose.postgres" data-source-line="45" id="ent0010"><rect fill="#FFFFFF" height="46.2969" rx="2.5" ry="2.5" style="stroke:#000000;stroke-width:1;" width="156.375" x="396.5474" y="663.5276"/><rect fill="#FFFFFF" height="10" style="stroke:#000000;stroke-width:1;" width="15" x="532.9224" y="668.5276"/><rect fill="#FFFFFF" height="2" style="stroke:#000000;stroke-width:1;" width="4" x="530.9224" y="670.5276"/><rect fill="#FFFFFF" height="2" style="stroke:#000000;stroke-width:1;" width="4" x="530.9224" y="674.5276"/><text fill="#000000" font-family="Verdana" font-size="14" lengthAdjust="spacing" textLength="116.375" x="411.5474" y="696.5227">PostgreSQL 14.8</text></g><!--entity cnss--><g class="entity" data-qualified-name="DockerHost.Compose.Control . Status.cnss" data-source-line="42" id="ent0009"><rect fill="#FFFFFF" height="62.5938" rx="2.5" ry="2.5" style="stroke:#000000;stroke-width:1;" width="102.4873" x="421.5474" y="521.5276"/><rect fill="#FFFFFF" height="10" style="stroke:#000000;stroke-width:1;" width="15" x="504.0347" y="526.5276"/><rect fill="#FFFFFF" height="2" style="stroke:#000000;stroke-width:1;" width="4" x="502.0347" y="528.5276"/><rect fill="#FFFFFF" height="2" style="stroke:#000000;stroke-width:1;" width="4" x="502.0347" y="532.5276"/><text fill="#000000" font-family="Verdana" font-size="14" lengthAdjust="spacing" textLength="38.0215" x="436.5474" y="554.5227">CNSS</text><text fill="#000000" font-family="Verdana" font-size="14" lengthAdjust="spacing" textLength="62.4873" x="436.5474" y="570.8196">(FastAPI)</text></g><!--link network to tproc--><g class="link" data-entity-1="ent0005" data-entity-2="ent0011" data-link-type="dependency" data-source-line="53" id="lnk12"><path d="M472.5474,139.8576 C472.5474,170.5176 472.5474,219.7676 472.5474,254.3076" fill="none" id="network-to-tproc" style="stroke:#000000;stroke-width:1;"/><polygon fill="#000000" points="472.5474,260.3076,476.5474,251.3076,472.5474,255.3076,468.5474,251.3076,472.5474,260.3076" style="stroke:#000000;stroke-width:1;"/><text fill="#000000" font-family="Verdana" font-size="13" lengthAdjust="spacing" textLength="166.0737" x="473.5474" y="184.5945">Raw Socket (NET_ADMIN)</text></g><!--link tproc to cnss--><g class="link" data-entity-1="ent0011" data-entity-2="ent0009" data-link-type="dependency" data-source-line="54" id="lnk13"><path d="M472.5474,323.7576 C472.5474,373.5976 472.5474,465.5176 472.5474,515.3376" fill="none" id="tproc-to-cnss" style="stroke:#000000;stroke-width:1;"/><polygon fill="#000000" points="472.5474,521.3376,476.5474,512.3376,472.5474,516.3376,468.5474,512.3376,472.5474,521.3376" style="stroke:#000000;stroke-width:1;"/><text fill="#000000" font-family="Verdana" font-size="13" lengthAdjust="spacing" textLength="186.3291" x="473.5474" y="374.0945">HTTP POST /load (port 8080)</text></g><!--link browser to cnss--><g class="link" data-entity-1="ent0003" data-entity-2="ent0009" data-link-type="dependency" data-source-line="57" id="lnk14"><path d="M241.9874,315.2476 C236.6974,334.8276 232.3774,363.5876 243.5474,385.5276 C280.5774,458.2376 360.4108,504.1843 415.8008,529.2443" fill="none" id="browser-to-cnss" style="stroke:#000000;stroke-width:1;"/><polygon fill="#000000" points="421.2674,531.7176,414.7164,524.3634,416.7119,529.6565,411.4187,531.6521,421.2674,531.7176" style="stroke:#000000;stroke-width:1;"/><text fill="#000000" font-family="Verdana" font-size="13" lengthAdjust="spacing" textLength="111.6362" x="244.5474" y="366.5945">HTTP (port 8080)</text><text fill="#000000" font-family="Verdana" font-size="13" lengthAdjust="spacing" textLength="79.1426" x="260.7942" y="381.7273">(dashboard)</text></g><!--link cnss to postgres--><g class="link" data-entity-1="ent0009" data-entity-2="ent0010" data-link-type="dependency" data-source-line="60" id="lnk15"><path d="M473.0174,584.8576 C473.3874,608.9976 473.7954,635.9883 474.1254,657.5183" fill="none" id="cnss-to-postgres" style="stroke:#000000;stroke-width:1;"/><polygon fill="#000000" points="474.2174,663.5176,478.079,654.4573,474.1407,658.5182,470.0799,654.5799,474.2174,663.5176" style="stroke:#000000;stroke-width:1;"/><text fill="#000000" font-family="Verdana" font-size="13" lengthAdjust="spacing" textLength="103.8667" x="474.5474" y="629.5945">SQL (port 5432)</text></g><?plantuml-src bLFRRjD047ttLmn1eiv3Q84YHQYAb1jgf3IOshGF1Q6DFKbMsUnOk-kaKTLNFe1Fv4lOIveR1Ga_hNVEd3bdPlQ5cU42eHICooZISovBfjW291K83n50X-NpgQ9A5bqIfE1snWsc2vgZ2v8gK8L0ZwbvHrJkkgqKhSBjotF_HO_xv3ajIf8epTyh795tX0KTaGYgYcS9XdmwCzqrayyezDS7F0KpRCmq_hyMmur0o1IRJ7WEYQ8SjRQ0TAqDBg01FIm5hHVEQ8-pgQiM9xErvZaJSCDnLO-Y4sWq6j0LtA4oZihzHxxzjRuiu8ksLprSyXnhS75H-5Eh1KpxK8XuxRkktjtY63fs1XRmpI77uUn4XthzUuDAMXKZD2jISryqTBHs7AiTim_vScSxfKhbwAl8WDzLwL4-j-elIHk8X-HSdrghhihDLNtFw1xGcRHIbwY2oH3o50-HrN6Gq7MYj6yCtcDU6KuIK2wv8kdQ7YWsg93_nD0bQHG9U0MfOQRI_-9uy7a7FUYEqlIhZ3yoRTh9eExzvr9hZtmCXRQRTPTO-LE5wUSXl3b_tVJeCjov38y_WSoj4AXAQj3ebjEWM0DLHdEh-Cb5h0sJ1HDM29HXv-g7y_4yLbnYznGDf99F9gY2HkDITXEwHi6SOJtZfOPuE_fVFtx2G8QVpQ2sYz8A9F01hjdApjyNYKVzx7kxTpKOrQCGTa3N4OkxpB84aazf1gU2M05nISf0ywnvTlm0shdpumjkTlOFdhrawx5WUZOcfeejKu9AS_i0fNqMVgkb9snj6sw9t202p_lpTs_hlm40?></g></svg>