<svg xmlns="http://www.w3.org/2000/svg" xmlns:xlink="http://www.w3.org/1999/xlink" version="1.1" data-diagram-type="DESCRIPTION" style="width:728px;height:1027px;background:#FFFFFF;" width="728px" height="1027px" viewBox="0 0 728 1027" zoomAndPan="magnify" preserveAspectRatio="none" contentStyleType="text/css"><?plantuml 1.2026.7beta6?><defs/><g font-family="sans-serif" lengthAdjust="spacing"><g class="title" data-source-line="1"><text x="120.139" y="22.995" fill="#000" font-size="14" textLength="481.134" font-weight="700">Traffic Processor System - Component Diagram (Static View)</text></g><!--cluster Traffic Processor System--><g class="cluster" data-qualified-name="Traffic Processor System" id="ent0001" data-source-line="3"><path d="M8.5,143.297 L206.512,143.297 A3.75,3.75 0 0 1 209.012,145.797 L216.012,165.594 L558.5,165.594 A2.5,2.5 0 0 1 561,168.094 L561,1010.097 A2.5,2.5 0 0 1 558.5,1012.597 L8.5,1012.597 A2.5,2.5 0 0 1 6,1010.097 L6,145.797 A2.5,2.5 0 0 1 8.5,143.297" style="stroke:#000;stroke-width:1.5;" fill="none"/><line x1="6" y1="165.594" x2="216.012" y2="165.594" style="stroke:#000;stroke-width:1.5;"/><text x="10" y="158.292" fill="#000" font-size="14" textLength="197.012" font-weight="700">Traffic Processor System</text></g><!--cluster Traffic Capture--><g class="cluster" data-qualified-name="Traffic Processor System.Traffic Capture" id="ent0002" data-source-line="5"><path d="M32.5,186.297 L152.356,186.297 A3.75,3.75 0 0 1 154.856,188.797 L161.856,208.594 L191.5,208.594 A2.5,2.5 0 0 1 194,211.094 L194,562.797 A2.5,2.5 0 0 1 191.5,565.297 L32.5,565.297 A2.5,2.5 0 0 1 30,562.797 L30,188.797 A2.5,2.5 0 0 1 32.5,186.297" style="stroke:#000;stroke-width:1.5;" fill="none"/><line x1="30" y1="208.594" x2="161.856" y2="208.594" style="stroke:#000;stroke-width:1.5;"/><text x="34" y="201.292" fill="#000" font-size="14" textLength="118.856" font-weight="700">Traffic Capture</text></g><!--cluster Access Control--><g class="cluster" data-qualified-name="Traffic Processor System.Access Control" id="ent0006" data-source-line="11"><path d="M220.5,192.147 L337.841,192.147 A3.75,3.75 0 0 1 340.341,194.647 L347.341,214.444 L534.5,214.444 A2.5,2.5 0 0 1 537,216.944 L537,556.947 A2.5,2.5 0 0 1 534.5,559.447 L220.5,559.447 A2.5,2.5 0 0 1 218,556.947 L218,194.647 A2.5,2.5 0 0 1 220.5,192.147" style="stroke:#000;stroke-width:1.5;" fill="none"/><line x1="218" y1="214.444" x2="347.341" y2="214.444" style="stroke:#000;stroke-width:1.5;"/><text x="222" y="207.142" fill="#000" font-size="14" textLength="116.341" font-weight="700">Access Control</text></g><!--cluster Control & Status--><g class="cluster" data-qualified-name="Traffic Processor System.Control . Status" id="ent0011" data-source-line="18"><path d="M131.5,614.297 L263.545,614.297 A3.75,3.75 0 0 1 266.045,616.797 L273.045,636.594 L510.5,636.594 A2.5,2.5 0 0 1 513,639.094 L513,720.797 A2.5,2.5 0 0 1 510.5,723.297 L131.5,723.297 A2.5,2.5 0 0 1 129,720.797 L129,616.797 A2.5,2.5 0 0 1 131.5,614.297" style="stroke:#000;stroke-width:1.5;" fill="none"/><line x1="129" y1="636.594" x2="273.045" y2="636.594" style="stroke:#000;stroke-width:1.5;"/><text x="133" y="629.292" fill="#000" font-size="14" textLength="131.045" font-weight="700">Control &amp; Status</text></g><!--cluster Data Layer--><g class="cluster" data-qualified-name="Traffic Processor System.Data Layer" id="ent0015" data-source-line="24"><path d="M110.5,756.297 L197.476,756.297 A3.75,3.75 0 0 1 199.976,758.797 L206.976,778.594 L257.5,778.594 A2.5,2.5 0 0 1 260,781.094 L260,986.097 A2.5,2.5 0 0 1 257.5,988.597 L110.5,988.597 A2.5,2.5 0 0 1 108,986.097 L108,758.797 A2.5,2.5 0 0 1 110.5,756.297" style="stroke:#000;stroke-width:1.5;" fill="none"/><line x1="108" y1="778.594" x2="206.976" y2="778.594" style="stroke:#000;stroke-width:1.5;"/><text x="112" y="771.292" fill="#000" font-size="14" textLength="85.976" font-weight="700">Data Layer</text></g><!--entity tproc--><g class="entity" data-qualified-name="Traffic Processor System.Traffic Capture.tproc" id="ent0003" data-source-line="6"><rect x="78.49" y="362.147" width="79.013" height="46.297" fill="#F1F1F1" style="stroke:#181818;stroke-width:0.5;" rx="2.5" ry="2.5"/><rect x="137.503" y="367.147" width="15" height="10" fill="#F1F1F1" style="stroke:#181818;stroke-width:0.5;"/><rect x="135.503" y="369.147" width="4" height="2" fill="#F1F1F1" style="stroke:#181818;stroke-width:0.5;"/><rect x="135.503" y="373.147" width="4" height="2" fill="#F1F1F1" style="stroke:#181818;stroke-width:0.5;"/><text x="93.49" y="395.142" fill="#000" font-size="14" textLength="39.013">TProc</text></g><!--entity net_iface--><g class="entity" data-qualified-name="Traffic Processor System.Traffic Capture.net_iface" id="ent0004" data-source-line="7"><ellipse cx="128" cy="250.297" rx="8" ry="8" fill="#F1F1F1" style="stroke:#181818;stroke-width:0.5;"/><text x="87.217" y="280.292" fill="#000" font-size="14" textLength="81.566">Raw Socket</text></g><!--entity load_api--><g class="entity" data-qualified-name="Traffic Processor System.Traffic Capture.load_api" id="ent0005" data-source-line="8"><ellipse cx="112" cy="520.297" rx="8" ry="8" fill="#F1F1F1" style="stroke:#181818;stroke-width:0.5;"/><text x="53.744" y="550.292" fill="#000" font-size="14" textLength="116.512">HTTP POST /load</text></g><!--entity gate--><g class="entity" data-qualified-name="Traffic Processor System.Access Control.gate" id="ent0007" data-source-line="12"><rect x="247.23" y="227.147" width="73.53" height="46.297" fill="#F1F1F1" style="stroke:#181818;stroke-width:0.5;" rx="2.5" ry="2.5"/><rect x="300.76" y="232.147" width="15" height="10" fill="#F1F1F1" style="stroke:#181818;stroke-width:0.5;"/><rect x="298.76" y="234.147" width="4" height="2" fill="#F1F1F1" style="stroke:#181818;stroke-width:0.5;"/><rect x="298.76" y="238.147" width="4" height="2" fill="#F1F1F1" style="stroke:#181818;stroke-width:0.5;"/><text x="262.23" y="260.142" fill="#000" font-size="14" textLength="33.53">Gate</text></g><!--entity mock_target--><g class="entity" data-qualified-name="Traffic Processor System.Access Control.mock_target" id="ent0008" data-source-line="13"><rect x="233.61" y="497.147" width="126.775" height="46.297" fill="#F1F1F1" style="stroke:#181818;stroke-width:0.5;" rx="2.5" ry="2.5"/><rect x="340.385" y="502.147" width="15" height="10" fill="#F1F1F1" style="stroke:#181818;stroke-width:0.5;"/><rect x="338.385" y="504.147" width="4" height="2" fill="#F1F1F1" style="stroke:#181818;stroke-width:0.5;"/><rect x="338.385" y="508.147" width="4" height="2" fill="#F1F1F1" style="stroke:#181818;stroke-width:0.5;"/><text x="248.61" y="530.142" fill="#000" font-size="14" textLength="86.775">Mock Target</text></g><!--entity error_server--><g class="entity" data-qualified-name="Traffic Processor System.Access Control.error_server" id="ent0009" data-source-line="14"><rect x="395.48" y="497.147" width="125.039" height="46.297" fill="#F1F1F1" style="stroke:#181818;stroke-width:0.5;" rx="2.5" ry="2.5"/><rect x="500.519" y="502.147" width="15" height="10" fill="#F1F1F1" style="stroke:#181818;stroke-width:0.5;"/><rect x="498.519" y="504.147" width="4" height="2" fill="#F1F1F1" style="stroke:#181818;stroke-width:0.5;"/><rect x="498.519" y="508.147" width="4" height="2" fill="#F1F1F1" style="stroke:#181818;stroke-width:0.5;"/><text x="410.48" y="530.142" fill="#000" font-size="14" textLength="85.039">Error Server</text></g><!--entity proxy_api--><g class="entity" data-qualified-name="Traffic Processor System.Access Control.proxy_api" id="ent0010" data-source-line="15"><ellipse cx="297" cy="385.297" rx="8" ry="8" fill="#F1F1F1" style="stroke:#181818;stroke-width:0.5;"/><text x="257.071" y="415.292" fill="#000" font-size="14" textLength="79.857">HTTP Proxy</text></g><!--entity cnss--><g class="entity" data-qualified-name="Traffic Processor System.Control . Status.cnss" id="ent0012" data-source-line="19"><rect x="144.99" y="655.147" width="78.021" height="46.297" fill="#F1F1F1" style="stroke:#181818;stroke-width:0.5;" rx="2.5" ry="2.5"/><rect x="203.011" y="660.147" width="15" height="10" fill="#F1F1F1" style="stroke:#181818;stroke-width:0.5;"/><rect x="201.011" y="662.147" width="4" height="2" fill="#F1F1F1" style="stroke:#181818;stroke-width:0.5;"/><rect x="201.011" y="666.147" width="4" height="2" fill="#F1F1F1" style="stroke:#181818;stroke-width:0.5;"/><text x="159.99" y="688.142" fill="#000" font-size="14" textLength="38.021">CNSS</text></g><!--entity get_api--><g class="entity" data-qualified-name="Traffic Processor System.Control . Status.get_api" id="ent0013" data-source-line="20"><ellipse cx="312" cy="678.297" rx="8" ry="8" fill="#F1F1F1" style="stroke:#181818;stroke-width:0.5;"/><text x="265.96" y="708.292" fill="#000" font-size="14" textLength="92.08">GET /packets</text></g><!--entity reset_api--><g class="entity" data-qualified-name="Traffic Processor System.Control . Status.reset_api" id="ent0014" data-source-line="21"><ellipse cx="449" cy="678.297" rx="8" ry="8" fill="#F1F1F1" style="stroke:#181818;stroke-width:0.5;"/><text x="408.083" y="708.292" fill="#000" font-size="14" textLength="81.833">POST /reset</text></g><!--entity postgres--><g class="entity" data-qualified-name="Traffic Processor System.Data Layer.postgres" id="ent0016" data-source-line="25"><rect x="123.62" y="926.297" width="120.753" height="46.297" fill="#F1F1F1" style="stroke:#181818;stroke-width:0.5;" rx="2.5" ry="2.5"/><rect x="224.373" y="931.297" width="15" height="10" fill="#F1F1F1" style="stroke:#181818;stroke-width:0.5;"/><rect x="222.373" y="933.297" width="4" height="2" fill="#F1F1F1" style="stroke:#181818;stroke-width:0.5;"/><rect x="222.373" y="937.297" width="4" height="2" fill="#F1F1F1" style="stroke:#181818;stroke-width:0.5;"/><text x="138.62" y="959.292" fill="#000" font-size="14" textLength="80.753">PostgreSQL</text></g><!--entity sql_api--><g class="entity" data-qualified-name="Traffic Processor System.Data Layer.sql_api" id="ent0017" data-source-line="26"><ellipse cx="184" cy="820.297" rx="8" ry="8" fill="#F1F1F1" style="stroke:#181818;stroke-width:0.5;"/><text x="135.243" y="850.292" fill="#000" font-size="14" textLength="97.515">SQL / Alembic</text></g><!--entity network--><g class="entity" data-qualified-name="network" id="ent0018" data-source-line="31"><ellipse cx="207" cy="51.297" rx="8" ry="8" fill="#F1F1F1" style="stroke:#181818;stroke-width:0.5;"/><text x="136.863" y="81.292" fill="#000" font-size="14" textLength="140.273">Live Network Traffic</text></g><!--entity dashboard--><g class="entity" data-qualified-name="dashboard" id="ent0019" data-source-line="32"><ellipse cx="649" cy="520.297" rx="8" ry="8" fill="#F1F1F1" style="stroke:#181818;stroke-width:0.5;"/><text x="584.588" y="550.292" fill="#000" font-size="14" textLength="128.823">Dashboard Access</text></g><!--link network to net_iface--><g class="link" data-entity-1="ent0018" data-entity-2="ent0004" id="lnk20" data-source-line="34" data-link-type="dependency"><path d="M203.81,60.267 C191.05,92.087 145.681,205.206 133.011,236.806" style="stroke:#181818;stroke-width:1;" fill="none" id="network-to-net_iface"/><polygon points="131.15,241.447,138.212,234.582,133.011,236.806,130.787,231.605,131.15,241.447" fill="#181818" style="stroke:#181818;stroke-width:1;stroke-linejoin:miter;stroke-miterlimit:10;"/></g><!--link net_iface to tproc--><g class="link" data-entity-1="ent0004" data-entity-2="ent0003" id="lnk21" data-source-line="35" data-link-type="dependency"><path d="M127.4,259.217 C125.91,279.077 122.345,326.541 120.065,356.841" style="stroke:#181818;stroke-width:1;" fill="none" id="net_iface-to-tproc"/><polygon points="119.69,361.827,124.354,353.152,120.065,356.841,116.377,352.552,119.69,361.827" fill="#181818" style="stroke:#181818;stroke-width:1;stroke-linejoin:miter;stroke-miterlimit:10;"/><text x="125" y="322.364" fill="#000" font-size="13" textLength="56.818">captures</text></g><!--link tproc to load_api--><g class="link" data-entity-1="ent0003" data-entity-2="ent0005" id="lnk22" data-source-line="36" data-link-type="dependency"><path d="M116.98,408.857 C115.61,439.247 113.465,486.792 112.575,506.522" style="stroke:#181818;stroke-width:1;" fill="none" id="tproc-to-load_api"/><polygon points="112.35,511.517,116.752,502.706,112.575,506.522,108.76,502.346,112.35,511.517" fill="#181818" style="stroke:#181818;stroke-width:1;stroke-linejoin:miter;stroke-miterlimit:10;"/></g><!--link load_api to cnss--><g class="link" data-entity-1="ent0005" data-entity-2="ent0012" id="lnk23" data-source-line="37" data-link-type="dependency"><path d="M115.67,529.247 C126.27,552.227 155.146,614.767 171.496,650.217" style="stroke:#181818;stroke-width:1;" fill="none" id="load_api-to-cnss"/><polygon points="173.59,654.757,173.453,644.909,171.496,650.217,166.188,648.259,173.59,654.757" fill="#181818" style="stroke:#181818;stroke-width:1;stroke-linejoin:miter;stroke-miterlimit:10;"/><text x="147" y="594.364" fill="#000" font-size="13" textLength="73.874">sends stats</text></g><!--link dashboard to cnss--><g class="link" data-entity-1="ent0019" data-entity-2="ent0012" id="lnk24" data-source-line="40" data-link-type="dependency"><path d="M640.1,526.667 C621.62,537.507 577.46,561.977 537,573.297 C409.53,608.967 357,542.527 241,606.297 C221.05,617.267 208.076,634.065 198.296,650.425" style="stroke:#181818;stroke-width:1;" fill="none" id="dashboard-to-cnss"/><polygon points="195.73,654.717,203.781,649.044,198.296,650.425,196.915,644.94,195.73,654.717" fill="#181818" style="stroke:#181818;stroke-width:1;stroke-linejoin:miter;stroke-miterlimit:10;"/><text x="495" y="594.364" fill="#000" font-size="13" textLength="33.497">HTTP</text></g><!--link network to gate--><g class="link" data-entity-1="ent0018" data-entity-2="ent0007" id="lnk25" data-source-line="41" data-link-type="dependency"><path d="M210.11,60.267 C221.06,88.267 256.2,178.18 273.33,222" style="stroke:#181818;stroke-width:1;" fill="none" id="network-to-gate"/><polygon points="275.15,226.657,275.599,216.818,273.33,222,268.148,219.731,275.15,226.657" fill="#181818" style="stroke:#181818;stroke-width:1;stroke-linejoin:miter;stroke-miterlimit:10;"/><text x="235" y="123.364" fill="#000" font-size="13" textLength="33.497">HTTP</text></g><!--link gate to proxy_api--><g class="link" data-entity-1="ent0007" data-entity-2="ent0010" id="lnk26" data-source-line="44" data-link-type="dependency"><path d="M286.21,273.857 C289.18,304.247 293.823,351.811 295.753,371.541" style="stroke:#181818;stroke-width:1;" fill="none" id="gate-to-proxy_api"/><polygon points="296.24,376.517,299.345,367.17,295.753,371.541,291.383,367.949,296.24,376.517" fill="#181818" style="stroke:#181818;stroke-width:1;stroke-linejoin:miter;stroke-miterlimit:10;"/></g><!--link proxy_api to mock_target--><g class="link" data-entity-1="ent0010" data-entity-2="ent0008" id="lnk27" data-source-line="45" data-link-type="dependency"><path d="M297,394.217 C297,414.077 297,461.527 297,491.827" style="stroke:#181818;stroke-width:1;" fill="none" id="proxy_api-to-mock_target"/><polygon points="297,496.827,301,487.827,297,491.827,293,487.827,297,496.827" fill="#181818" style="stroke:#181818;stroke-width:1;stroke-linejoin:miter;stroke-miterlimit:10;"/><text x="298" y="457.364" fill="#000" font-size="13" textLength="62.347">if allowed</text></g><!--link proxy_api to error_server--><g class="link" data-entity-1="ent0010" data-entity-2="ent0009" id="lnk28" data-source-line="46" data-link-type="dependency"><path d="M305.92,393.377 C319.57,404.247 346.45,425.727 369,444.297 C390.21,461.777 410.188,478.611 427.838,493.591" style="stroke:#181818;stroke-width:1;" fill="none" id="proxy_api-to-error_server"/><polygon points="431.65,496.827,427.377,487.953,427.838,493.591,422.2,494.053,431.65,496.827" fill="#181818" style="stroke:#181818;stroke-width:1;stroke-linejoin:miter;stroke-miterlimit:10;"/><text x="389" y="457.364" fill="#000" font-size="13" textLength="63.064">if blocked</text></g><!--link cnss to sql_api--><g class="link" data-entity-1="ent0012" data-entity-2="ent0017" id="lnk29" data-source-line="49" data-link-type="dependency"><path d="M184,701.797 C184,733.797 184,785.877 184,806.547" style="stroke:#181818;stroke-width:1;" fill="none" id="cnss-to-sql_api"/><polygon points="184,811.547,188,802.547,184,806.547,180,802.547,184,811.547" fill="#181818" style="stroke:#181818;stroke-width:1;stroke-linejoin:miter;stroke-miterlimit:10;"/></g><!--link sql_api to postgres--><g class="link" data-entity-1="ent0017" data-entity-2="ent0016" id="lnk30" data-source-line="50" data-link-type="dependency"><path d="M184,829.257 C184,848.287 184,891.997 184,920.917" style="stroke:#181818;stroke-width:1;" fill="none" id="sql_api-to-postgres"/><polygon points="184,925.917,188,916.917,184,920.917,180,916.917,184,925.917" fill="#181818" style="stroke:#181818;stroke-width:1;stroke-linejoin:miter;stroke-miterlimit:10;"/><text x="185" y="892.364" fill="#000" font-size="13" textLength="50.623">persists</text></g><?plantuml-src TLF1Rjim3BthAuWSklOGzBx3W289kaFQUREnop04ZCruGcJBavIcmT1_dqZPQfOXW05JJuzyJo8LT304bSFTJjTGE5kJzzP1UVA1EfZ3mdQ3xQaFiDJOEkpWjWmO8lcxfkETKWFMUsm9PjUApE2F0eZVVym53k7WA140VbIS-XFGGnXY9E3j7So-uH5AM-yfp7Ypfx3HEwmf4pvNLG75bxA2UsEn4HO76nnq9BrTw3_KR30UhG_EcYp_Y854lOr1WfwYAbJeMWgoqyNr9iWw4LREyK79lP0J1Z6myG9S-7FszIJM1ewkU1jDmGtmDHzyThTuBajHg7llS-N7LJmp9rFmKZiw6oidGheLHtwyF8ckQ2yn8ApnH2wh5jQ7rb7vTItQGrg-wySDk8S7GzrMroBWVvjS_asf3x1w3UHwDA3x673VlEBKjNuXUAPmj6u_JU3KNyQ4j4J_QslHDP2Q9eHc0fKQkJ2VVpgRYnm9BiC47w5Eu-PL0dWh3yaK2Cet7FcU-YQU9xR1ypaMHlCpGF6XieVp3ExpFvPuaYOybk090sSFGVUjaZqclOz3ZWG_6xPOG-y0ZR57QYvevnENU5l3ZwLXnOASr_4Lzl5Mn2HdJ2qQ_yd4sDbOOKWv_Yy0?></g></svg>