<?plantuml 1.2026.2?>
<svg xmlns="http://www.w3.org/2000/svg" xmlns:xlink="http://www.w3.org/1999/xlink" contentStyleType="text/css" data-diagram-type="DESCRIPTION" height="989px" preserveAspectRatio="none" style="width:789px;height:989px;background:#FFFFFF;" version="1.1" viewBox="0 0 789 989" width="789px" zoomAndPan="magnify"><title>Traffic Processor System - Component Diagram (Static View)</title><defs/><g><g class="title" data-source-line="2"><text fill="#000000" font-family="Verdana" font-size="22" font-weight="bold" lengthAdjust="spacing" textLength="756.0674" x="15" y="35.4209">Traffic Processor System - Component Diagram (Static View)</text></g><!--cluster Traffic Processor System--><g class="cluster" data-qualified-name="Traffic Processor System" data-source-line="4" id="ent0002"><path d="M109.8279,141.6094 L307.8396,141.6094 A3.75,3.75 0 0 1 310.3396,144.1094 L317.3396,163.9063 L536.8279,163.9063 A2.5,2.5 0 0 1 539.3279,166.4063 L539.3279,980.1094 A2.5,2.5 0 0 1 536.8279,982.6094 L109.8279,982.6094 A2.5,2.5 0 0 1 107.3279,980.1094 L107.3279,144.1094 A2.5,2.5 0 0 1 109.8279,141.6094" fill="#FFFFFF" style="stroke:#000000;stroke-width:1;"/><line style="stroke:#000000;stroke-width:1;" x1="107.3279" x2="317.3396" y1="163.9063" y2="163.9063"/><text fill="#000000" font-family="Verdana" font-size="14" font-weight="bold" lengthAdjust="spacing" textLength="197.0117" x="111.3279" y="156.6045">Traffic Processor System</text></g><!--cluster Traffic Capture--><g class="cluster" data-qualified-name="Traffic Processor System.Traffic Capture" data-source-line="6" id="ent0003"><path d="M353.8279,184.6094 L473.6843,184.6094 A3.75,3.75 0 0 1 476.1843,187.1094 L483.1843,206.9063 L512.8279,206.9063 A2.5,2.5 0 0 1 515.3279,209.4063 L515.3279,533.1094 A2.5,2.5 0 0 1 512.8279,535.6094 L353.8279,535.6094 A2.5,2.5 0 0 1 351.3279,533.1094 L351.3279,187.1094 A2.5,2.5 0 0 1 353.8279,184.6094" fill="#FFFFFF" style="stroke:#000000;stroke-width:1;"/><line style="stroke:#000000;stroke-width:1;" x1="351.3279" x2="483.1843" y1="206.9063" y2="206.9063"/><text fill="#000000" font-family="Verdana" font-size="14" font-weight="bold" lengthAdjust="spacing" textLength="118.8564" x="355.3279" y="199.6045">Traffic Capture</text></g><!--cluster Control & Status--><g class="cluster" data-qualified-name="Traffic Processor System.Control . Status" data-source-line="12" id="ent0007"><path d="M133.8279,584.6094 L265.8728,584.6094 A3.75,3.75 0 0 1 268.3728,587.1094 L275.3728,606.9063 L512.8279,606.9063 A2.5,2.5 0 0 1 515.3279,609.4063 L515.3279,691.1094 A2.5,2.5 0 0 1 512.8279,693.6094 L133.8279,693.6094 A2.5,2.5 0 0 1 131.3279,691.1094 L131.3279,587.1094 A2.5,2.5 0 0 1 133.8279,584.6094" fill="#FFFFFF" style="stroke:#000000;stroke-width:1;"/><line style="stroke:#000000;stroke-width:1;" x1="131.3279" x2="275.3728" y1="606.9063" y2="606.9063"/><text fill="#000000" font-family="Verdana" font-size="14" font-weight="bold" lengthAdjust="spacing" textLength="131.0449" x="135.3279" y="599.6045">Control &amp; Status</text></g><!--cluster Data Layer--><g class="cluster" data-qualified-name="Traffic Processor System.Data Layer" data-source-line="18" id="ent0011"><path d="M363.8279,726.6094 L450.8035,726.6094 A3.75,3.75 0 0 1 453.3035,729.1094 L460.3035,748.9063 L512.8279,748.9063 A2.5,2.5 0 0 1 515.3279,751.4063 L515.3279,956.1094 A2.5,2.5 0 0 1 512.8279,958.6094 L363.8279,958.6094 A2.5,2.5 0 0 1 361.3279,956.1094 L361.3279,729.1094 A2.5,2.5 0 0 1 363.8279,726.6094" fill="#FFFFFF" style="stroke:#000000;stroke-width:1;"/><line style="stroke:#000000;stroke-width:1;" x1="361.3279" x2="460.3035" y1="748.9063" y2="748.9063"/><text fill="#000000" font-family="Verdana" font-size="14" font-weight="bold" lengthAdjust="spacing" textLength="85.9756" x="365.3279" y="741.6045">Data Layer</text></g><!--entity tproc--><g class="entity" data-qualified-name="Traffic Processor System.Traffic Capture.tproc" data-source-line="7" id="ent0004"><rect fill="#FFFFFF" height="46.2969" rx="2.5" ry="2.5" style="stroke:#000000;stroke-width:1;" width="79.0127" x="393.8279" y="354.6094"/><rect fill="#FFFFFF" height="10" style="stroke:#000000;stroke-width:1;" width="15" x="452.8406" y="359.6094"/><rect fill="#FFFFFF" height="2" style="stroke:#000000;stroke-width:1;" width="4" x="450.8406" y="361.6094"/><rect fill="#FFFFFF" height="2" style="stroke:#000000;stroke-width:1;" width="4" x="450.8406" y="365.6094"/><text fill="#000000" font-family="Verdana" font-size="14" lengthAdjust="spacing" textLength="39.0127" x="408.8279" y="387.6045">TProc</text></g><!--entity net_iface--><g class="entity" data-qualified-name="Traffic Processor System.Traffic Capture.net_iface" data-source-line="8" id="ent0005"><ellipse cx="433.3279" cy="248.6094" fill="#FFFFFF" rx="8" ry="8" style="stroke:#000000;stroke-width:1;"/><text fill="#000000" font-family="Verdana" font-size="14" lengthAdjust="spacing" textLength="81.5664" x="392.5447" y="278.6045">Raw Socket</text></g><!--entity load_api--><g class="entity" data-qualified-name="Traffic Processor System.Traffic Capture.load_api" data-source-line="9" id="ent0006"><ellipse cx="433.3279" cy="490.6094" fill="#FFFFFF" rx="8" ry="8" style="stroke:#000000;stroke-width:1;"/><text fill="#000000" font-family="Verdana" font-size="14" lengthAdjust="spacing" textLength="116.5117" x="375.072" y="520.6045">HTTP POST /load</text></g><!--entity cnss--><g class="entity" data-qualified-name="Traffic Processor System.Control . Status.cnss" data-source-line="13" id="ent0008"><rect fill="#FFFFFF" height="46.2969" rx="2.5" ry="2.5" style="stroke:#000000;stroke-width:1;" width="78.0215" x="421.3279" y="625.6094"/><rect fill="#FFFFFF" height="10" style="stroke:#000000;stroke-width:1;" width="15" x="479.3494" y="630.6094"/><rect fill="#FFFFFF" height="2" style="stroke:#000000;stroke-width:1;" width="4" x="477.3494" y="632.6094"/><rect fill="#FFFFFF" height="2" style="stroke:#000000;stroke-width:1;" width="4" x="477.3494" y="636.6094"/><text fill="#000000" font-family="Verdana" font-size="14" lengthAdjust="spacing" textLength="38.0215" x="436.3279" y="658.6045">CNSS</text></g><!--entity get_api--><g class="entity" data-qualified-name="Traffic Processor System.Control . Status.get_api" data-source-line="14" id="ent0009"><ellipse cx="332.3279" cy="648.6094" fill="#FFFFFF" rx="8" ry="8" style="stroke:#000000;stroke-width:1;"/><text fill="#000000" font-family="Verdana" font-size="14" lengthAdjust="spacing" textLength="92.0801" x="286.2878" y="678.6045">GET /packets</text></g><!--entity reset_api--><g class="entity" data-qualified-name="Traffic Processor System.Control . Status.reset_api" data-source-line="15" id="ent0010"><ellipse cx="195.3279" cy="648.6094" fill="#FFFFFF" rx="8" ry="8" style="stroke:#000000;stroke-width:1;"/><text fill="#000000" font-family="Verdana" font-size="14" lengthAdjust="spacing" textLength="81.833" x="154.4114" y="678.6045">POST /reset</text></g><!--entity postgres--><g class="entity" data-qualified-name="Traffic Processor System.Data Layer.postgres" data-source-line="19" id="ent0012"><rect fill="#FFFFFF" height="46.2969" rx="2.5" ry="2.5" style="stroke:#000000;stroke-width:1;" width="120.7529" x="377.8279" y="896.6094"/><rect fill="#FFFFFF" height="10" style="stroke:#000000;stroke-width:1;" width="15" x="478.5808" y="901.6094"/><rect fill="#FFFFFF" height="2" style="stroke:#000000;stroke-width:1;" width="4" x="476.5808" y="903.6094"/><rect fill="#FFFFFF" height="2" style="stroke:#000000;stroke-width:1;" width="4" x="476.5808" y="907.6094"/><text fill="#000000" font-family="Verdana" font-size="14" lengthAdjust="spacing" textLength="80.7529" x="392.8279" y="929.6045">PostgreSQL</text></g><!--entity sql_api--><g class="entity" data-qualified-name="Traffic Processor System.Data Layer.sql_api" data-source-line="20" id="ent0013"><ellipse cx="441.3279" cy="790.6094" fill="#FFFFFF" rx="8" ry="8" style="stroke:#000000;stroke-width:1;"/><text fill="#000000" font-family="Verdana" font-size="14" lengthAdjust="spacing" textLength="97.5146" x="392.5706" y="820.6045">SQL / Alembic</text></g><!--entity network--><g class="entity" data-qualified-name="network" data-source-line="25" id="ent0014"><ellipse cx="433.3279" cy="65.6094" fill="#FFFFFF" rx="8" ry="8" style="stroke:#000000;stroke-width:1;"/><text fill="#000000" font-family="Verdana" font-size="14" lengthAdjust="spacing" textLength="140.2734" x="363.1912" y="95.6045">Live Network Traffic</text></g><!--entity dashboard--><g class="entity" data-qualified-name="dashboard" data-source-line="26" id="ent0015"><ellipse cx="627.3279" cy="490.6094" fill="#FFFFFF" rx="8" ry="8" style="stroke:#000000;stroke-width:1;"/><text fill="#000000" font-family="Verdana" font-size="14" lengthAdjust="spacing" textLength="128.8232" x="562.9163" y="520.6045">Dashboard Access</text></g><!--link network to net_iface--><g class="link" data-entity-1="ent0014" data-entity-2="ent0005" data-link-type="dependency" data-source-line="28" id="lnk16"><path d="M433.3279,74.8594 C433.3279,105.0094 433.3279,203.0794 433.3279,233.3094" fill="none" id="network-to-net_iface" style="stroke:#000000;stroke-width:1;"/><polygon fill="#000000" points="433.3279,239.3094,437.3279,230.3094,433.3279,234.3094,429.3279,230.3094,433.3279,239.3094" style="stroke:#000000;stroke-width:1;"/></g><!--link net_iface to tproc--><g class="link" data-entity-1="ent0005" data-entity-2="ent0004" data-link-type="dependency" data-source-line="29" id="lnk17"><path d="M433.3279,257.9394 C433.3279,277.2594 433.3279,319.6194 433.3279,348.2894" fill="none" id="net_iface-to-tproc" style="stroke:#000000;stroke-width:1;"/><polygon fill="#000000" points="433.3279,354.2894,437.3279,345.2894,433.3279,349.2894,429.3279,345.2894,433.3279,354.2894" style="stroke:#000000;stroke-width:1;"/><text fill="#000000" font-family="Verdana" font-size="13" lengthAdjust="spacing" textLength="56.8179" x="434.3279" y="320.6763">captures</text></g><!--link tproc to load_api--><g class="link" data-entity-1="ent0004" data-entity-2="ent0006" data-link-type="dependency" data-source-line="30" id="lnk18"><path d="M433.3279,400.8094 C433.3279,425.7294 433.3279,458.8794 433.3279,475.6094" fill="none" id="tproc-to-load_api" style="stroke:#000000;stroke-width:1;"/><polygon fill="#000000" points="433.3279,481.6094,437.3279,472.6094,433.3279,476.6094,429.3279,472.6094,433.3279,481.6094" style="stroke:#000000;stroke-width:1;"/></g><!--link load_api to cnss--><g class="link" data-entity-1="ent0006" data-entity-2="ent0008" data-link-type="dependency" data-source-line="31" id="lnk19"><path d="M434.7779,499.9994 C438.8479,523.4794 449.4038,584.5174 455.4838,619.6174" fill="none" id="load_api-to-cnss" style="stroke:#000000;stroke-width:1;"/><polygon fill="#000000" points="456.5079,625.5294,458.9131,615.9787,455.6545,620.6027,451.0305,617.3441,456.5079,625.5294" style="stroke:#000000;stroke-width:1;"/><text fill="#000000" font-family="Verdana" font-size="13" lengthAdjust="spacing" textLength="73.874" x="446.3279" y="564.6763">sends stats</text></g><!--link dashboard to cnss--><g class="link" data-entity-1="ent0015" data-entity-2="ent0008" data-link-type="dependency" data-source-line="34" id="lnk20"><path d="M618.3479,499.9994 C593.2179,523.4794 525.9227,586.3339 488.3427,621.4339" fill="none" id="dashboard-to-cnss" style="stroke:#000000;stroke-width:1;"/><polygon fill="#000000" points="483.9579,625.5294,493.2655,622.3094,487.6119,622.1165,487.8048,616.4629,483.9579,625.5294" style="stroke:#000000;stroke-width:1;"/><text fill="#000000" font-family="Verdana" font-size="13" lengthAdjust="spacing" textLength="33.4966" x="559.3279" y="564.6763">HTTP</text></g><!--link cnss to sql_api--><g class="link" data-entity-1="ent0008" data-entity-2="ent0013" data-link-type="dependency" data-source-line="37" id="lnk21"><path d="M457.3179,671.7894 C453.0079,703.5594 446.0836,754.5437 443.2336,775.5737" fill="none" id="cnss-to-sql_api" style="stroke:#000000;stroke-width:1;"/><polygon fill="#000000" points="442.4279,781.5194,447.6003,773.1381,443.0993,776.5647,439.6728,772.0637,442.4279,781.5194" style="stroke:#000000;stroke-width:1;"/></g><!--link sql_api to postgres--><g class="link" data-entity-1="ent0013" data-entity-2="ent0012" data-link-type="dependency" data-source-line="38" id="lnk22"><path d="M441.1279,799.9394 C440.6779,819.2594 439.6681,861.621 438.9981,890.291" fill="none" id="sql_api-to-postgres" style="stroke:#000000;stroke-width:1;"/><polygon fill="#000000" points="438.8579,896.2894,443.0671,887.3853,438.9747,891.2907,435.0692,887.1984,438.8579,896.2894" style="stroke:#000000;stroke-width:1;"/><text fill="#000000" font-family="Verdana" font-size="13" lengthAdjust="spacing" textLength="50.6226" x="440.3279" y="862.6763">persists</text></g><?plantuml-src TL9DJyCm3BtdLvWU-3XCt3aWeMw2mmI5LbmGGbxcbMXjKcAFWT3-EqcwbWc4LAdEyxEVuvSZUQMMe6lGM2L66eBAusfbD1JUQM9s7ifF5cfX0hbhEsV92amDrXvRE2q59P0V3MtFbEfGhx4coFvhai6N0WZV7sQEdMmyzGI0fogMFWCoI1UY19wUGVQ0MoYTNfDaCMb9NimADOs4cwegeBWhApXl72uJAmOls9b0sltIpvqLxneuXdYL3Oy3vBTbcVIrPHwxNyz2trXCmgbr7GReE_U4NjaJxmTCqJ_QKnI4ENwI7rKBnr9xAk_dIRlhZp_w8G7dSDLGkp0w2V1RCxRVANK2imyXRx41OqCGTyCgbixDEy4joTRvzU3oiCE89T8K-NNXq2_XIaVd4c4vW4hjkJ2PN1xiVemIdWo32z2zfQnw8AP68uOWeN73WSzab-4-mGQEzyWR4vyQfZdKECDXHVGwKWloRCBxic6Mb8gSOJ7xVyA6VORQhg_XRm00?></g></svg>