<?plantuml 1.2026.2?>
<svg xmlns="http://www.w3.org/2000/svg" xmlns:xlink="http://www.w3.org/1999/xlink" contentStyleType="text/css" data-diagram-type="SEQUENCE" height="1057px" preserveAspectRatio="none" style="width:1471px;height:1057px;background:#FFFFFF;" version="1.1" viewBox="0 0 1471 1057" width="1471px" zoomAndPan="magnify"><title>Sequence Diagram - Live Traffic &amp; Access Flow</title><defs/><g><text fill="#000000" font-family="sans-serif" font-size="14" font-weight="bold" lengthAdjust="spacing" textLength="369.8174" x="549.9526" y="27.9951">Sequence Diagram - Live Traffic &amp; Access Flow</text><g><title>Gate</title><rect fill="#FFFFFF" height="270.8672" style="stroke:#181818;stroke-width:1;" width="10" x="289.1572" y="695.8516"/></g><g><title>Mock Target</title><rect fill="#FFFFFF" height="29.1328" style="stroke:#181818;stroke-width:1;" width="10" x="563.6064" y="791.25"/></g><g><title>Error Server</title><rect fill="#FFFFFF" height="29.1328" style="stroke:#181818;stroke-width:1;" width="10" x="673.5137" y="893.4531"/></g><g><title>CNSS API</title><rect fill="#FFFFFF" height="129.5313" style="stroke:#181818;stroke-width:1;" width="10" x="772.3433" y="413.6563"/></g><g><title>CNSS API</title><rect fill="#FFFFFF" height="87.3984" style="stroke:#181818;stroke-width:1;" width="10" x="772.3433" y="579.3203"/></g><g><title>PostgreSQL</title><rect fill="#FFFFFF" height="29.1328" style="stroke:#181818;stroke-width:1;" width="10" x="1058.2944" y="484.9219"/></g><g><title>PostgreSQL</title><rect fill="#FFFFFF" height="29.1328" style="stroke:#181818;stroke-width:1;" width="10" x="1058.2944" y="608.4531"/></g><g><title>TProc</title><rect fill="#FFFFFF" height="161.5313" style="stroke:#181818;stroke-width:1;" width="10" x="1142.1772" y="149.7266"/></g><rect fill="none" height="217.9297" style="stroke:#000000;stroke-width:1.5;" width="620.0107" x="728.0332" y="333.2578"/><rect fill="none" height="206.7344" style="stroke:#000000;stroke-width:1.5;" width="728.0332" x="10" y="752.9844"/><g class="participant-lifeline" data-entity-uid="part1" data-qualified-name="user" id="part1-lifeline"><g><title>End User</title><rect fill="#000000" fill-opacity="0.00000" height="858.125" width="8" x="50.4829" y="118.5938"/><line style="stroke:#181818;stroke-width:0.5;stroke-dasharray:5,5;" x1="54" x2="54" y1="118.5938" y2="976.7188"/></g></g><g class="participant-lifeline" data-entity-uid="part2" data-qualified-name="gate" id="part2-lifeline"><g><title>Gate</title><rect fill="#000000" fill-opacity="0.00000" height="858.125" width="8" x="290.1572" y="118.5938"/><line style="stroke:#181818;stroke-width:0.5;stroke-dasharray:5,5;" x1="293.3921" x2="293.3921" y1="118.5938" y2="976.7188"/></g></g><g class="participant-lifeline" data-entity-uid="part3" data-qualified-name="target" id="part3-lifeline"><g><title>Mock Target</title><rect fill="#000000" fill-opacity="0.00000" height="858.125" width="8" x="564.6064" y="118.5938"/><line style="stroke:#181818;stroke-width:0.5;stroke-dasharray:5,5;" x1="568.2188" x2="568.2188" y1="118.5938" y2="976.7188"/></g></g><g class="participant-lifeline" data-entity-uid="part4" data-qualified-name="error" id="part4-lifeline"><g><title>Error Server</title><rect fill="#000000" fill-opacity="0.00000" height="858.125" width="8" x="674.5137" y="118.5938"/><line style="stroke:#181818;stroke-width:0.5;stroke-dasharray:5,5;" x1="677.9941" x2="677.9941" y1="118.5938" y2="976.7188"/></g></g><g class="participant-lifeline" data-entity-uid="part5" data-qualified-name="api" id="part5-lifeline"><g><title>CNSS API</title><rect fill="#000000" fill-opacity="0.00000" height="858.125" width="8" x="773.3433" y="118.5938"/><line style="stroke:#181818;stroke-width:0.5;stroke-dasharray:5,5;" x1="777.0332" x2="777.0332" y1="118.5938" y2="976.7188"/></g></g><g class="participant-lifeline" data-entity-uid="part6" data-qualified-name="db" id="part6-lifeline"><g><title>PostgreSQL</title><rect fill="#000000" fill-opacity="0.00000" height="858.125" width="8" x="1059.2944" y="118.5938"/><line style="stroke:#181818;stroke-width:0.5;stroke-dasharray:5,5;" x1="1062.918" x2="1062.918" y1="118.5938" y2="976.7188"/></g></g><g class="participant-lifeline" data-entity-uid="part7" data-qualified-name="tp" id="part7-lifeline"><g><title>TProc</title><rect fill="#000000" fill-opacity="0.00000" height="858.125" width="8" x="1143.1772" y="118.5938"/><line style="stroke:#181818;stroke-width:0.5;stroke-dasharray:5,5;" x1="1146.6709" x2="1146.6709" y1="118.5938" y2="976.7188"/></g></g><g class="participant-lifeline" data-entity-uid="part8" data-qualified-name="net" id="part8-lifeline"><g><title>Network Interface</title><rect fill="#000000" fill-opacity="0.00000" height="858.125" width="8" x="1391.9312" y="118.5938"/><line style="stroke:#181818;stroke-width:0.5;stroke-dasharray:5,5;" x1="1395.1396" x2="1395.1396" y1="118.5938" y2="976.7188"/></g></g><g class="participant participant-head" data-entity-uid="part1" data-qualified-name="user" id="part1-head"><text fill="#000000" font-family="sans-serif" font-size="14" lengthAdjust="spacing" textLength="62.9658" x="20" y="115.292">End User</text><ellipse cx="54.4829" cy="50.7969" fill="#E2E2F0" rx="8" ry="8" style="stroke:#181818;stroke-width:0.5;"/><path d="M54.4829,58.7969 L54.4829,85.7969 M41.4829,66.7969 L67.4829,66.7969 M54.4829,85.7969 L41.4829,100.7969 M54.4829,85.7969 L67.4829,100.7969" fill="none" style="stroke:#181818;stroke-width:0.5;"/></g><g class="participant participant-tail" data-entity-uid="part1" data-qualified-name="user" id="part1-tail"><text fill="#000000" font-family="sans-serif" font-size="14" lengthAdjust="spacing" textLength="62.9658" x="20" y="988.7139">End User</text><ellipse cx="54.4829" cy="1000.5156" fill="#E2E2F0" rx="8" ry="8" style="stroke:#181818;stroke-width:0.5;"/><path d="M54.4829,1008.5156 L54.4829,1035.5156 M41.4829,1016.5156 L67.4829,1016.5156 M54.4829,1035.5156 L41.4829,1050.5156 M54.4829,1035.5156 L67.4829,1050.5156" fill="none" style="stroke:#181818;stroke-width:0.5;"/></g><g class="participant participant-head" data-entity-uid="part2" data-qualified-name="gate" id="part2-head"><rect fill="#E2E2F0" height="30.2969" rx="2.5" ry="2.5" style="stroke:#181818;stroke-width:0.5;" width="47.5303" x="270.3921" y="87.2969"/><text fill="#000000" font-family="sans-serif" font-size="14" lengthAdjust="spacing" textLength="33.5303" x="277.3921" y="107.292">Gate</text></g><g class="participant participant-tail" data-entity-uid="part2" data-qualified-name="gate" id="part2-tail"><rect fill="#E2E2F0" height="30.2969" rx="2.5" ry="2.5" style="stroke:#181818;stroke-width:0.5;" width="47.5303" x="270.3921" y="975.7188"/><text fill="#000000" font-family="sans-serif" font-size="14" lengthAdjust="spacing" textLength="33.5303" x="277.3921" y="995.7139">Gate</text></g><g class="participant participant-head" data-entity-uid="part3" data-qualified-name="target" id="part3-head"><rect fill="#E2E2F0" height="30.2969" rx="2.5" ry="2.5" style="stroke:#181818;stroke-width:0.5;" width="100.7754" x="518.2188" y="87.2969"/><text fill="#000000" font-family="sans-serif" font-size="14" lengthAdjust="spacing" textLength="86.7754" x="525.2188" y="107.292">Mock Target</text></g><g class="participant participant-tail" data-entity-uid="part3" data-qualified-name="target" id="part3-tail"><rect fill="#E2E2F0" height="30.2969" rx="2.5" ry="2.5" style="stroke:#181818;stroke-width:0.5;" width="100.7754" x="518.2188" y="975.7188"/><text fill="#000000" font-family="sans-serif" font-size="14" lengthAdjust="spacing" textLength="86.7754" x="525.2188" y="995.7139">Mock Target</text></g><g class="participant participant-head" data-entity-uid="part4" data-qualified-name="error" id="part4-head"><rect fill="#E2E2F0" height="30.2969" rx="2.5" ry="2.5" style="stroke:#181818;stroke-width:0.5;" width="99.0391" x="628.9941" y="87.2969"/><text fill="#000000" font-family="sans-serif" font-size="14" lengthAdjust="spacing" textLength="85.0391" x="635.9941" y="107.292">Error Server</text></g><g class="participant participant-tail" data-entity-uid="part4" data-qualified-name="error" id="part4-tail"><rect fill="#E2E2F0" height="30.2969" rx="2.5" ry="2.5" style="stroke:#181818;stroke-width:0.5;" width="99.0391" x="628.9941" y="975.7188"/><text fill="#000000" font-family="sans-serif" font-size="14" lengthAdjust="spacing" textLength="85.0391" x="635.9941" y="995.7139">Error Server</text></g><g class="participant participant-head" data-entity-uid="part5" data-qualified-name="api" id="part5-head"><rect fill="#E2E2F0" height="30.2969" rx="2.5" ry="2.5" style="stroke:#181818;stroke-width:0.5;" width="78.6201" x="738.0332" y="87.2969"/><text fill="#000000" font-family="sans-serif" font-size="14" lengthAdjust="spacing" textLength="64.6201" x="745.0332" y="107.292">CNSS API</text></g><g class="participant participant-tail" data-entity-uid="part5" data-qualified-name="api" id="part5-tail"><rect fill="#E2E2F0" height="30.2969" rx="2.5" ry="2.5" style="stroke:#181818;stroke-width:0.5;" width="78.6201" x="738.0332" y="975.7188"/><text fill="#000000" font-family="sans-serif" font-size="14" lengthAdjust="spacing" textLength="64.6201" x="745.0332" y="995.7139">CNSS API</text></g><g class="participant participant-head" data-entity-uid="part6" data-qualified-name="db" id="part6-head"><rect fill="#E2E2F0" height="30.2969" rx="2.5" ry="2.5" style="stroke:#181818;stroke-width:0.5;" width="94.7529" x="1015.918" y="87.2969"/><text fill="#000000" font-family="sans-serif" font-size="14" lengthAdjust="spacing" textLength="80.7529" x="1022.918" y="107.292">PostgreSQL</text></g><g class="participant participant-tail" data-entity-uid="part6" data-qualified-name="db" id="part6-tail"><rect fill="#E2E2F0" height="30.2969" rx="2.5" ry="2.5" style="stroke:#181818;stroke-width:0.5;" width="94.7529" x="1015.918" y="975.7188"/><text fill="#000000" font-family="sans-serif" font-size="14" lengthAdjust="spacing" textLength="80.7529" x="1022.918" y="995.7139">PostgreSQL</text></g><g class="participant participant-head" data-entity-uid="part7" data-qualified-name="tp" id="part7-head"><rect fill="#E2E2F0" height="30.2969" rx="2.5" ry="2.5" style="stroke:#181818;stroke-width:0.5;" width="53.0127" x="1120.6709" y="87.2969"/><text fill="#000000" font-family="sans-serif" font-size="14" lengthAdjust="spacing" textLength="39.0127" x="1127.6709" y="107.292">TProc</text></g><g class="participant participant-tail" data-entity-uid="part7" data-qualified-name="tp" id="part7-tail"><rect fill="#E2E2F0" height="30.2969" rx="2.5" ry="2.5" style="stroke:#181818;stroke-width:0.5;" width="53.0127" x="1120.6709" y="975.7188"/><text fill="#000000" font-family="sans-serif" font-size="14" lengthAdjust="spacing" textLength="39.0127" x="1127.6709" y="995.7139">TProc</text></g><g class="participant participant-head" data-entity-uid="part8" data-qualified-name="net" id="part8-head"><rect fill="#E2E2F0" height="30.2969" rx="2.5" ry="2.5" style="stroke:#181818;stroke-width:0.5;" width="139.583" x="1326.1396" y="87.2969"/><text fill="#000000" font-family="sans-serif" font-size="14" lengthAdjust="spacing" textLength="125.583" x="1333.1396" y="107.292">Network Interface</text></g><g class="participant participant-tail" data-entity-uid="part8" data-qualified-name="net" id="part8-tail"><rect fill="#E2E2F0" height="30.2969" rx="2.5" ry="2.5" style="stroke:#181818;stroke-width:0.5;" width="139.583" x="1326.1396" y="975.7188"/><text fill="#000000" font-family="sans-serif" font-size="14" lengthAdjust="spacing" textLength="125.583" x="1333.1396" y="995.7139">Network Interface</text></g><g><title>Gate</title><rect fill="#FFFFFF" height="270.8672" style="stroke:#181818;stroke-width:1;" width="10" x="289.1572" y="695.8516"/></g><g><title>Mock Target</title><rect fill="#FFFFFF" height="29.1328" style="stroke:#181818;stroke-width:1;" width="10" x="563.6064" y="791.25"/></g><g><title>Error Server</title><rect fill="#FFFFFF" height="29.1328" style="stroke:#181818;stroke-width:1;" width="10" x="673.5137" y="893.4531"/></g><g><title>CNSS API</title><rect fill="#FFFFFF" height="129.5313" style="stroke:#181818;stroke-width:1;" width="10" x="772.3433" y="413.6563"/></g><g><title>CNSS API</title><rect fill="#FFFFFF" height="87.3984" style="stroke:#181818;stroke-width:1;" width="10" x="772.3433" y="579.3203"/></g><g><title>PostgreSQL</title><rect fill="#FFFFFF" height="29.1328" style="stroke:#181818;stroke-width:1;" width="10" x="1058.2944" y="484.9219"/></g><g><title>PostgreSQL</title><rect fill="#FFFFFF" height="29.1328" style="stroke:#181818;stroke-width:1;" width="10" x="1058.2944" y="608.4531"/></g><g><title>TProc</title><rect fill="#FFFFFF" height="161.5313" style="stroke:#181818;stroke-width:1;" width="10" x="1142.1772" y="149.7266"/></g><g class="message" data-entity-1="part8" data-entity-2="part7" id="msg1"><polygon fill="#181818" points="1163.1772,145.7266,1153.1772,149.7266,1163.1772,153.7266,1159.1772,149.7266" style="stroke:#181818;stroke-width:1;"/><line style="stroke:#181818;stroke-width:1;" x1="1157.1772" x2="1394.9312" y1="149.7266" y2="149.7266"/><text fill="#000000" font-family="sans-serif" font-size="13" lengthAdjust="spacing" textLength="81.4404" x="1169.1772" y="144.6606">Live packets</text></g><g class="message" data-entity-1="part7" data-entity-2="part7" id="msg2"><line style="stroke:#181818;stroke-width:1;" x1="1152.1772" x2="1194.1772" y1="178.8594" y2="178.8594"/><line style="stroke:#181818;stroke-width:1;" x1="1194.1772" x2="1194.1772" y1="178.8594" y2="191.8594"/><line style="stroke:#181818;stroke-width:1;" x1="1153.1772" x2="1194.1772" y1="191.8594" y2="191.8594"/><polygon fill="#181818" points="1163.1772,187.8594,1153.1772,191.8594,1163.1772,195.8594,1159.1772,191.8594" style="stroke:#181818;stroke-width:1;"/><text fill="#000000" font-family="sans-serif" font-size="13" lengthAdjust="spacing" textLength="130.9648" x="1159.1772" y="173.7935">Sniff packet (Scapy)</text></g><g class="message" data-entity-1="part7" data-entity-2="part7" id="msg3"><line style="stroke:#181818;stroke-width:1;" x1="1152.1772" x2="1194.1772" y1="220.9922" y2="220.9922"/><line style="stroke:#181818;stroke-width:1;" x1="1194.1772" x2="1194.1772" y1="220.9922" y2="233.9922"/><line style="stroke:#181818;stroke-width:1;" x1="1153.1772" x2="1194.1772" y1="233.9922" y2="233.9922"/><polygon fill="#181818" points="1163.1772,229.9922,1153.1772,233.9922,1163.1772,237.9922,1159.1772,233.9922" style="stroke:#181818;stroke-width:1;"/><text fill="#000000" font-family="sans-serif" font-size="13" lengthAdjust="spacing" textLength="214.7539" x="1159.1772" y="215.9263">Classify protocol (TCP/UDP/ICMP)</text></g><g class="message" data-entity-1="part7" data-entity-2="part7" id="msg4"><line style="stroke:#181818;stroke-width:1;" x1="1152.1772" x2="1194.1772" y1="263.125" y2="263.125"/><line style="stroke:#181818;stroke-width:1;" x1="1194.1772" x2="1194.1772" y1="263.125" y2="276.125"/><line style="stroke:#181818;stroke-width:1;" x1="1153.1772" x2="1194.1772" y1="276.125" y2="276.125"/><polygon fill="#181818" points="1163.1772,272.125,1153.1772,276.125,1163.1772,280.125,1159.1772,276.125" style="stroke:#181818;stroke-width:1;"/><text fill="#000000" font-family="sans-serif" font-size="13" lengthAdjust="spacing" textLength="182.146" x="1159.1772" y="258.0591">Determine direction (in/out)</text></g><g class="message" data-entity-1="part7" data-entity-2="part7" id="msg5"><line style="stroke:#181818;stroke-width:1;" x1="1152.1772" x2="1194.1772" y1="310.2578" y2="310.2578"/><line style="stroke:#181818;stroke-width:1;" x1="1194.1772" x2="1194.1772" y1="310.2578" y2="323.2578"/><line style="stroke:#181818;stroke-width:1;" x1="1147.1772" x2="1194.1772" y1="323.2578" y2="323.2578"/><polygon fill="#181818" points="1157.1772,319.2578,1147.1772,323.2578,1157.1772,327.2578,1153.1772,323.2578" style="stroke:#181818;stroke-width:1;"/><text fill="#000000" font-family="sans-serif" font-size="13" lengthAdjust="spacing" textLength="200.2305" x="1159.1772" y="305.1919">Update IPTracker (per-IP stats)</text></g><path d="M728.0332,333.2578 L804.6572,333.2578 L804.6572,340.3906 L794.6572,350.3906 L728.0332,350.3906 L728.0332,333.2578" fill="#EEEEEE" style="stroke:#000000;stroke-width:1.5;"/><rect fill="none" height="217.9297" style="stroke:#000000;stroke-width:1.5;" width="620.0107" x="728.0332" y="333.2578"/><text fill="#000000" font-family="sans-serif" font-size="13" font-weight="bold" lengthAdjust="spacing" textLength="31.624" x="743.0332" y="346.3247">loop</text><text fill="#000000" font-family="sans-serif" font-size="11" font-weight="bold" lengthAdjust="spacing" textLength="224.6406" x="819.6572" y="345.4683">[Every delay seconds (default 0.5s)]</text><g class="message" data-entity-1="part7" data-entity-2="part7" id="msg6"><line style="stroke:#181818;stroke-width:1;" x1="1147.1772" x2="1189.1772" y1="371.5234" y2="371.5234"/><line style="stroke:#181818;stroke-width:1;" x1="1189.1772" x2="1189.1772" y1="371.5234" y2="384.5234"/><line style="stroke:#181818;stroke-width:1;" x1="1148.1772" x2="1189.1772" y1="384.5234" y2="384.5234"/><polygon fill="#181818" points="1158.1772,380.5234,1148.1772,384.5234,1158.1772,388.5234,1154.1772,384.5234" style="stroke:#181818;stroke-width:1;"/><text fill="#000000" font-family="sans-serif" font-size="13" lengthAdjust="spacing" textLength="181.8667" x="1154.1772" y="366.4575">Build statistics batch (JSON)</text></g><g class="message" data-entity-1="part7" data-entity-2="part5" id="msg7"><polygon fill="#181818" points="793.3433,409.6563,783.3433,413.6563,793.3433,417.6563,789.3433,413.6563" style="stroke:#181818;stroke-width:1;"/><line style="stroke:#181818;stroke-width:1;" x1="787.3433" x2="1146.1772" y1="413.6563" y2="413.6563"/><text fill="#000000" font-family="sans-serif" font-size="13" lengthAdjust="spacing" textLength="108.1895" x="799.3433" y="408.5903">HTTP POST /load</text></g><g class="message" data-entity-1="part5" data-entity-2="part5" id="msg8"><line style="stroke:#181818;stroke-width:1;" x1="782.3433" x2="824.3433" y1="442.7891" y2="442.7891"/><line style="stroke:#181818;stroke-width:1;" x1="824.3433" x2="824.3433" y1="442.7891" y2="455.7891"/><line style="stroke:#181818;stroke-width:1;" x1="783.3433" x2="824.3433" y1="455.7891" y2="455.7891"/><polygon fill="#181818" points="793.3433,451.7891,783.3433,455.7891,793.3433,459.7891,789.3433,455.7891" style="stroke:#181818;stroke-width:1;"/><text fill="#000000" font-family="sans-serif" font-size="13" lengthAdjust="spacing" textLength="251.9512" x="789.3433" y="437.7231">Validate against NetworkStats schema</text></g><g class="message" data-entity-1="part5" data-entity-2="part6" id="msg9"><polygon fill="#181818" points="1046.2944,480.9219,1056.2944,484.9219,1046.2944,488.9219,1050.2944,484.9219" style="stroke:#181818;stroke-width:1;"/><line style="stroke:#181818;stroke-width:1;" x1="782.3433" x2="1052.2944" y1="484.9219" y2="484.9219"/><text fill="#000000" font-family="sans-serif" font-size="13" lengthAdjust="spacing" textLength="120.6689" x="789.3433" y="479.856">Store/update stats</text></g><g class="message" data-entity-1="part6" data-entity-2="part5" id="msg10"><polygon fill="#181818" points="793.3433,510.0547,783.3433,514.0547,793.3433,518.0547,789.3433,514.0547" style="stroke:#181818;stroke-width:1;"/><line style="stroke:#181818;stroke-width:1;stroke-dasharray:2,2;" x1="787.3433" x2="1062.2944" y1="514.0547" y2="514.0547"/><text fill="#000000" font-family="sans-serif" font-size="13" lengthAdjust="spacing" textLength="94.7578" x="799.3433" y="508.9888">Acknowledged</text></g><g class="message" data-entity-1="part5" data-entity-2="part7" id="msg11"><polygon fill="#181818" points="1135.1772,539.1875,1145.1772,543.1875,1135.1772,547.1875,1139.1772,543.1875" style="stroke:#181818;stroke-width:1;"/><line style="stroke:#181818;stroke-width:1;stroke-dasharray:2,2;" x1="777.3433" x2="1141.1772" y1="543.1875" y2="543.1875"/><text fill="#000000" font-family="sans-serif" font-size="13" lengthAdjust="spacing" textLength="85.3315" x="784.3433" y="538.1216">HTTP 200 OK</text></g><g class="message" data-entity-1="part1" data-entity-2="part5" id="msg12"><polygon fill="#181818" points="760.3433,575.3203,770.3433,579.3203,760.3433,583.3203,764.3433,579.3203" style="stroke:#181818;stroke-width:1;"/><line style="stroke:#181818;stroke-width:1;" x1="54.4829" x2="766.3433" y1="579.3203" y2="579.3203"/><text fill="#000000" font-family="sans-serif" font-size="13" lengthAdjust="spacing" textLength="85.5029" x="61.4829" y="574.2544">GET /packets</text></g><g class="message" data-entity-1="part5" data-entity-2="part6" id="msg13"><polygon fill="#181818" points="1046.2944,604.4531,1056.2944,608.4531,1046.2944,612.4531,1050.2944,608.4531" style="stroke:#181818;stroke-width:1;"/><line style="stroke:#181818;stroke-width:1;" x1="782.3433" x2="1052.2944" y1="608.4531" y2="608.4531"/><text fill="#000000" font-family="sans-serif" font-size="13" lengthAdjust="spacing" textLength="131.2886" x="789.3433" y="603.3872">Retrieve latest stats</text></g><g class="message" data-entity-1="part6" data-entity-2="part5" id="msg14"><polygon fill="#181818" points="793.3433,633.5859,783.3433,637.5859,793.3433,641.5859,789.3433,637.5859" style="stroke:#181818;stroke-width:1;"/><line style="stroke:#181818;stroke-width:1;stroke-dasharray:2,2;" x1="787.3433" x2="1062.2944" y1="637.5859" y2="637.5859"/><text fill="#000000" font-family="sans-serif" font-size="13" lengthAdjust="spacing" textLength="79.79" x="799.3433" y="632.52">Return stats</text></g><g class="message" data-entity-1="part5" data-entity-2="part1" id="msg15"><polygon fill="#181818" points="65.4829,662.7188,55.4829,666.7188,65.4829,670.7188,61.4829,666.7188" style="stroke:#181818;stroke-width:1;"/><line style="stroke:#181818;stroke-width:1;stroke-dasharray:2,2;" x1="59.4829" x2="776.3433" y1="666.7188" y2="666.7188"/><text fill="#000000" font-family="sans-serif" font-size="13" lengthAdjust="spacing" textLength="95.5068" x="71.4829" y="661.6528">JSON response</text></g><g class="message" data-entity-1="part1" data-entity-2="part2" id="msg16"><polygon fill="#181818" points="277.1572,691.8516,287.1572,695.8516,277.1572,699.8516,281.1572,695.8516" style="stroke:#181818;stroke-width:1;"/><line style="stroke:#181818;stroke-width:1;" x1="54.4829" x2="283.1572" y1="695.8516" y2="695.8516"/><text fill="#000000" font-family="sans-serif" font-size="13" lengthAdjust="spacing" textLength="215.6743" x="61.4829" y="690.7856">HTTP request to protected target</text></g><g class="message" data-entity-1="part2" data-entity-2="part2" id="msg17"><line style="stroke:#181818;stroke-width:1;" x1="299.1572" x2="341.1572" y1="724.9844" y2="724.9844"/><line style="stroke:#181818;stroke-width:1;" x1="341.1572" x2="341.1572" y1="724.9844" y2="737.9844"/><line style="stroke:#181818;stroke-width:1;" x1="300.1572" x2="341.1572" y1="737.9844" y2="737.9844"/><polygon fill="#181818" points="310.1572,733.9844,300.1572,737.9844,310.1572,741.9844,306.1572,737.9844" style="stroke:#181818;stroke-width:1;"/><text fill="#000000" font-family="sans-serif" font-size="13" lengthAdjust="spacing" textLength="240.4492" x="306.1572" y="719.9185">Check client IP against BLOCKED_IPS</text></g><path d="M10,752.9844 L74.4429,752.9844 L74.4429,760.1172 L64.4429,770.1172 L10,770.1172 L10,752.9844" fill="#EEEEEE" style="stroke:#000000;stroke-width:1.5;"/><rect fill="none" height="206.7344" style="stroke:#000000;stroke-width:1.5;" width="728.0332" x="10" y="752.9844"/><text fill="#000000" font-family="sans-serif" font-size="13" font-weight="bold" lengthAdjust="spacing" textLength="19.4429" x="25" y="766.0513">alt</text><text fill="#000000" font-family="sans-serif" font-size="11" font-weight="bold" lengthAdjust="spacing" textLength="88.2041" x="89.4429" y="765.1948">[IP is allowed]</text><g class="message" data-entity-1="part2" data-entity-2="part3" id="msg18"><polygon fill="#181818" points="551.6064,787.25,561.6064,791.25,551.6064,795.25,555.6064,791.25" style="stroke:#181818;stroke-width:1;"/><line style="stroke:#181818;stroke-width:1;" x1="299.1572" x2="557.6064" y1="791.25" y2="791.25"/><text fill="#000000" font-family="sans-serif" font-size="13" lengthAdjust="spacing" textLength="90.3589" x="306.1572" y="786.1841">Proxy request</text></g><g class="message" data-entity-1="part3" data-entity-2="part2" id="msg19"><polygon fill="#181818" points="310.1572,816.3828,300.1572,820.3828,310.1572,824.3828,306.1572,820.3828" style="stroke:#181818;stroke-width:1;"/><line style="stroke:#181818;stroke-width:1;stroke-dasharray:2,2;" x1="304.1572" x2="567.6064" y1="820.3828" y2="820.3828"/><text fill="#000000" font-family="sans-serif" font-size="13" lengthAdjust="spacing" textLength="63.0195" x="316.1572" y="815.3169">Response</text></g><g class="message" data-entity-1="part2" data-entity-2="part1" id="msg20"><polygon fill="#181818" points="65.4829,845.5156,55.4829,849.5156,65.4829,853.5156,61.4829,849.5156" style="stroke:#181818;stroke-width:1;"/><line style="stroke:#181818;stroke-width:1;stroke-dasharray:2,2;" x1="59.4829" x2="288.1572" y1="849.5156" y2="849.5156"/><text fill="#000000" font-family="sans-serif" font-size="13" lengthAdjust="spacing" textLength="116.4351" x="71.4829" y="844.4497">Forward response</text></g><line style="stroke:#000000;stroke-width:1;stroke-dasharray:2,2;" x1="10" x2="738.0332" y1="858.5156" y2="858.5156"/><text fill="#000000" font-family="sans-serif" font-size="11" font-weight="bold" lengthAdjust="spacing" textLength="88.5586" x="15" y="868.7261">[IP is blocked]</text><g class="message" data-entity-1="part2" data-entity-2="part4" id="msg21"><polygon fill="#181818" points="661.5137,889.4531,671.5137,893.4531,661.5137,897.4531,665.5137,893.4531" style="stroke:#181818;stroke-width:1;"/><line style="stroke:#181818;stroke-width:1;" x1="299.1572" x2="667.5137" y1="893.4531" y2="893.4531"/><text fill="#000000" font-family="sans-serif" font-size="13" lengthAdjust="spacing" textLength="151.5566" x="306.1572" y="888.3872">Forward to error server</text></g><g class="message" data-entity-1="part4" data-entity-2="part2" id="msg22"><polygon fill="#181818" points="310.1572,918.5859,300.1572,922.5859,310.1572,926.5859,306.1572,922.5859" style="stroke:#181818;stroke-width:1;"/><line style="stroke:#181818;stroke-width:1;stroke-dasharray:2,2;" x1="304.1572" x2="677.5137" y1="922.5859" y2="922.5859"/><text fill="#000000" font-family="sans-serif" font-size="13" lengthAdjust="spacing" textLength="61.4136" x="316.1572" y="917.52">403 page</text></g><g class="message" data-entity-1="part2" data-entity-2="part1" id="msg23"><polygon fill="#181818" points="65.4829,947.7188,55.4829,951.7188,65.4829,955.7188,61.4829,951.7188" style="stroke:#181818;stroke-width:1;"/><line style="stroke:#181818;stroke-width:1;stroke-dasharray:2,2;" x1="59.4829" x2="288.1572" y1="951.7188" y2="951.7188"/><text fill="#000000" font-family="sans-serif" font-size="13" lengthAdjust="spacing" textLength="129.8159" x="71.4829" y="946.6528">Access denied page</text></g><?plantuml-src fLHDSzem4BtpAtPoQCY1mhJfXPbs9W6Iqf3Wnf1hHqWBQ12IAybG_drNiW6RX5pY0oEqkzhttdvSmlSFVerBwEyqMqiEBnAtq8AHt21CB9lFwUuJt72Epi6TCbloJNABa2Yc_VHn14rje7SDIiuiixih2buppvVeW9jrPZHg3qAoXMLhS7wda5xuCE26bruXfFWtHyqH-cM2Tv4t6FV6miL02vWwj1V07EHqQ6JCUibbHfJWufvvZAO57UgcHyDNC65sWJvw-7Yi-moifIGfsasP0SD5tQVtbAPmamoZdMMoRasCymkBwUzHj8jPtJn9hE55-gnkUKA_DNO5G-tHpXalQ6X2U4PpI1XVeOSUotmeAYDbmkiacTIBDqCQz1oqVb3kRg5r5fzmGLov8SK2Af_jNL8jv_FI1vefPzdkgcBkAKQfvZl8hF666mNDIIzfJ_j9UzXxJAgkVIHIQwcHkiaY9JCQcbAtJUwhRjDC1133X7g0abfePcXRmuHwZtbtrH1O1NfEbvISfIDbNUWbxTQIO5B2DnLHncGme7BlGA1YEt38ZHOEcWBdB5SUEf-_KMgWxmZqDfTAH5HbebaO6sZ-IiTFLLzgZoxyd4mIICRf1DhAC17D1nwXWU959Wy1Bqp9A0HRCAcTXx8t0Z47ZkPppQf1OaQrekd0Tbu86EMgvw563F_535hxD3TyfSrMeLXW0QeYR-aU4vIS8uqldGwC7qwz0mdKucn5-imjPuPP0Syuj-YMRzSYZFD1XFi1wVMgFqEc2kjdz5OYDR8Y8mbL4A-og18cxzpgqgbETayqGEX2A2CGJjg03XidHC-E8qq1jJQA_TxQI0PX7xrFDYogKbmRDYAny2QELF5OkQOE4E9Y2p_7uDuIQRLn9SEwfcdPjytjQDnx6FJ_39EKzgUADaaxIz52BKk-VwZ8qWqa_ktsGEeTL0A9pHsFKR02mVDUgvF6gCGKcGuItncx3GrnK1cLmnBWJD6gFW4O5_4nZ2IADpIkOLVNaHPBErmLFaUSrvsljCyMht0U8qvWbgKKg2NL8eQ6Hg-4Xe3_?></g></svg>